<svg width="27" height="29" viewBox="0 0 27 29" fill="none" xmlns="http://www.w3.org/2000/svg">
<path d="M19.8 21.75H19.6172C19.4016 20.6927 19.0219 19.7204 18.4781 18.833C17.9344 17.9456 17.2734 17.181 16.4953 16.5391C15.7172 15.8971 14.8406 15.3968 13.8656 15.0381C12.8906 14.6794 11.8687 14.5 10.8 14.5C9.975 14.5 9.17812 14.6086 8.40938 14.8257C7.64062 15.0428 6.92344 15.3449 6.25781 15.7319C5.59219 16.119 4.9875 16.591 4.44375 17.1479C3.9 17.7049 3.43125 18.3185 3.0375 18.9888C2.64375 19.659 2.33906 20.3812 2.12344 21.1553C1.90781 21.9294 1.8 22.7318 1.8 23.5625H0C0 22.4297 0.164062 21.3394 0.492188 20.2915C0.820312 19.2437 1.29375 18.276 1.9125 17.3887C2.53125 16.5013 3.2625 15.7131 4.10625 15.0239C4.95 14.3348 5.90625 13.792 6.975 13.3955C5.91562 12.6969 5.09062 11.819 4.5 10.7617C3.90937 9.70443 3.60938 8.53385 3.6 7.25C3.6 6.24935 3.7875 5.31006 4.1625 4.43213C4.5375 3.5542 5.04844 2.78483 5.69531 2.12402C6.34219 1.46322 7.10625 0.94401 7.9875 0.566406C8.86875 0.188802 9.80625 0 10.8 0C11.7937 0 12.7266 0.188802 13.5984 0.566406C14.4703 0.94401 15.2344 1.4585 15.8906 2.10986C16.5469 2.76123 17.0625 3.5306 17.4375 4.41797C17.8125 5.30534 18 6.24935 18 7.25C18 7.87305 17.925 8.48193 17.775 9.07666C17.625 9.67139 17.4 10.2331 17.1 10.7617C16.8 11.2904 16.4484 11.7765 16.0453 12.2202C15.6422 12.6639 15.1687 13.0557 14.625 13.3955C15.675 13.8014 16.6406 14.3584 17.5219 15.0664C18.4031 15.7744 19.1625 16.6051 19.8 17.5586V21.75ZM5.4 7.25C5.4 8.00521 5.54062 8.7085 5.82187 9.35986C6.10312 10.0112 6.4875 10.5871 6.975 11.0874C7.4625 11.5877 8.03438 11.9795 8.69063 12.2627C9.34688 12.5459 10.05 12.6875 10.8 12.6875C11.5406 12.6875 12.2391 12.5459 12.8953 12.2627C13.5516 11.9795 14.1234 11.5924 14.6109 11.1016C15.0984 10.6107 15.4875 10.0348 15.7781 9.37402C16.0688 8.71322 16.2094 8.00521 16.2 7.25C16.2 6.50423 16.0594 5.80094 15.7781 5.14014C15.4969 4.47933 15.1125 3.90348 14.625 3.4126C14.1375 2.92171 13.5609 2.52995 12.8953 2.2373C12.2297 1.94466 11.5312 1.80306 10.8 1.8125C10.05 1.8125 9.35156 1.9541 8.70469 2.2373C8.05781 2.52051 7.48594 2.90755 6.98906 3.39844C6.49219 3.88932 6.10312 4.46989 5.82187 5.14014C5.54062 5.81038 5.4 6.51367 5.4 7.25ZM23.4 23.5625H27V25.375H23.4V29H21.6V25.375H18V23.5625H21.6V19.9375H23.4V23.5625Z" fill="#03045E"/>
</svg>
