<svg width="26" height="25" viewBox="0 0 26 25" fill="none" xmlns="http://www.w3.org/2000/svg">
<path d="M13.2825 4.94527C13.2069 4.87573 13.1063 4.83691 13.0017 4.83691C12.8971 4.83691 12.7965 4.87573 12.7209 4.94527L3.37207 13.5327C3.33237 13.5692 3.30078 13.6131 3.27922 13.6617C3.25766 13.7103 3.24658 13.7626 3.24664 13.8154L3.24512 21.875C3.24512 22.2894 3.41632 22.6868 3.72107 22.9798C4.02582 23.2728 4.43914 23.4375 4.87012 23.4375H9.7502C9.96568 23.4375 10.1723 23.3551 10.3247 23.2086C10.4771 23.0621 10.5627 22.8634 10.5627 22.6562V16.0156C10.5627 15.912 10.6055 15.8126 10.6817 15.7394C10.7579 15.6661 10.8612 15.625 10.9689 15.625H15.0314C15.1392 15.625 15.2425 15.6661 15.3187 15.7394C15.3949 15.8126 15.4377 15.912 15.4377 16.0156V22.6562C15.4377 22.8634 15.5233 23.0621 15.6757 23.2086C15.828 23.3551 16.0347 23.4375 16.2502 23.4375H21.1282C21.5592 23.4375 21.9725 23.2728 22.2773 22.9798C22.582 22.6868 22.7532 22.2894 22.7532 21.875V13.8154C22.7533 13.7626 22.7422 13.7103 22.7207 13.6617C22.6991 13.6131 22.6675 13.5692 22.6278 13.5327L13.2825 4.94527Z" fill="#03045E"/>
<path d="M24.929 11.9214L21.1306 8.42725V3.125C21.1306 2.9178 21.045 2.71909 20.8926 2.57257C20.7403 2.42606 20.5336 2.34375 20.3181 2.34375H17.8806C17.6651 2.34375 17.4585 2.42606 17.3061 2.57257C17.1537 2.71909 17.0681 2.9178 17.0681 3.125V4.6875L14.1269 1.9834C13.8516 1.71582 13.4423 1.5625 13 1.5625C12.5592 1.5625 12.151 1.71582 11.8757 1.98389L1.07455 11.9204C0.758691 12.2134 0.719082 12.6953 1.0065 13.0127C1.07868 13.0928 1.16705 13.158 1.26625 13.2042C1.36544 13.2504 1.47338 13.2768 1.5835 13.2816C1.69362 13.2864 1.80361 13.2697 1.90678 13.2324C2.00994 13.195 2.10413 13.1379 2.18361 13.0645L12.7207 3.38281C12.7963 3.31327 12.8969 3.27446 13.0015 3.27446C13.1062 3.27446 13.2068 3.31327 13.2824 3.38281L23.8205 13.0645C23.9757 13.2076 24.1836 13.2857 24.3987 13.2817C24.6137 13.2777 24.8183 13.1918 24.9676 13.043C25.2794 12.7324 25.2535 12.2197 24.929 11.9214Z" fill="#03045E"/>
</svg>
