<svg width="23" height="23" viewBox="0 0 23 23" fill="none" xmlns="http://www.w3.org/2000/svg">
<g clip-path="url(#clip0_155_9525)">
<path d="M4.89062 1.00002C4.52595 1.00002 4.17622 1.14488 3.91835 1.40274C3.66049 1.66061 3.51563 2.01034 3.51562 2.37502V21.625C3.51563 21.9897 3.66049 22.3394 3.91835 22.5973C4.17622 22.8552 4.52595 23 4.89062 23H9.01562V18.1875C9.01562 18.0052 9.08806 17.8303 9.21699 17.7014C9.34592 17.5724 9.52079 17.5 9.70312 17.5H13.8281C14.0105 17.5 14.1853 17.5724 14.3143 17.7014C14.4432 17.8303 14.5156 18.0052 14.5156 18.1875V23H18.6406C19.0053 23 19.355 22.8552 19.6129 22.5973C19.8708 22.3394 20.0156 21.9897 20.0156 21.625V2.37502C20.0156 2.01034 19.8708 1.66061 19.6129 1.40274C19.355 1.14488 19.0053 1.00002 18.6406 1.00002H4.89062ZM6.26562 4.43752C6.26562 4.25518 6.33806 4.08031 6.46699 3.95138C6.59592 3.82245 6.77079 3.75002 6.95312 3.75002H8.32812C8.51046 3.75002 8.68533 3.82245 8.81426 3.95138C8.94319 4.08031 9.01562 4.25518 9.01562 4.43752V5.81252C9.01562 5.99485 8.94319 6.16972 8.81426 6.29865C8.68533 6.42758 8.51046 6.50002 8.32812 6.50002H6.95312C6.77079 6.50002 6.59592 6.42758 6.46699 6.29865C6.33806 6.16972 6.26562 5.99485 6.26562 5.81252V4.43752ZM10.3906 4.43752C10.3906 4.25518 10.4631 4.08031 10.592 3.95138C10.7209 3.82245 10.8958 3.75002 11.0781 3.75002H12.4531C12.6355 3.75002 12.8103 3.82245 12.9393 3.95138C13.0682 4.08031 13.1406 4.25518 13.1406 4.43752V5.81252C13.1406 5.99485 13.0682 6.16972 12.9393 6.29865C12.8103 6.42758 12.6355 6.50002 12.4531 6.50002H11.0781C10.8958 6.50002 10.7209 6.42758 10.592 6.29865C10.4631 6.16972 10.3906 5.99485 10.3906 5.81252V4.43752ZM15.2031 3.75002H16.5781C16.7605 3.75002 16.9353 3.82245 17.0643 3.95138C17.1932 4.08031 17.2656 4.25518 17.2656 4.43752V5.81252C17.2656 5.99485 17.1932 6.16972 17.0643 6.29865C16.9353 6.42758 16.7605 6.50002 16.5781 6.50002H15.2031C15.0208 6.50002 14.8459 6.42758 14.717 6.29865C14.5881 6.16972 14.5156 5.99485 14.5156 5.81252V4.43752C14.5156 4.25518 14.5881 4.08031 14.717 3.95138C14.8459 3.82245 15.0208 3.75002 15.2031 3.75002ZM6.26562 8.56252C6.26562 8.38018 6.33806 8.20531 6.46699 8.07638C6.59592 7.94745 6.77079 7.87502 6.95312 7.87502H8.32812C8.51046 7.87502 8.68533 7.94745 8.81426 8.07638C8.94319 8.20531 9.01562 8.38018 9.01562 8.56252V9.93752C9.01562 10.1199 8.94319 10.2947 8.81426 10.4237C8.68533 10.5526 8.51046 10.625 8.32812 10.625H6.95312C6.77079 10.625 6.59592 10.5526 6.46699 10.4237C6.33806 10.2947 6.26562 10.1199 6.26562 9.93752V8.56252ZM11.0781 7.87502H12.4531C12.6355 7.87502 12.8103 7.94745 12.9393 8.07638C13.0682 8.20531 13.1406 8.38018 13.1406 8.56252V9.93752C13.1406 10.1199 13.0682 10.2947 12.9393 10.4237C12.8103 10.5526 12.6355 10.625 12.4531 10.625H11.0781C10.8958 10.625 10.7209 10.5526 10.592 10.4237C10.4631 10.2947 10.3906 10.1199 10.3906 9.93752V8.56252C10.3906 8.38018 10.4631 8.20531 10.592 8.07638C10.7209 7.94745 10.8958 7.87502 11.0781 7.87502ZM14.5156 8.56252C14.5156 8.38018 14.5881 8.20531 14.717 8.07638C14.8459 7.94745 15.0208 7.87502 15.2031 7.87502H16.5781C16.7605 7.87502 16.9353 7.94745 17.0643 8.07638C17.1932 8.20531 17.2656 8.38018 17.2656 8.56252V9.93752C17.2656 10.1199 17.1932 10.2947 17.0643 10.4237C16.9353 10.5526 16.7605 10.625 16.5781 10.625H15.2031C15.0208 10.625 14.8459 10.5526 14.717 10.4237C14.5881 10.2947 14.5156 10.1199 14.5156 9.93752V8.56252ZM6.95312 12H8.32812C8.51046 12 8.68533 12.0724 8.81426 12.2014C8.94319 12.3303 9.01562 12.5052 9.01562 12.6875V14.0625C9.01562 14.2449 8.94319 14.4197 8.81426 14.5487C8.68533 14.6776 8.51046 14.75 8.32812 14.75H6.95312C6.77079 14.75 6.59592 14.6776 6.46699 14.5487C6.33806 14.4197 6.26562 14.2449 6.26562 14.0625V12.6875C6.26562 12.5052 6.33806 12.3303 6.46699 12.2014C6.59592 12.0724 6.77079 12 6.95312 12ZM10.3906 12.6875C10.3906 12.5052 10.4631 12.3303 10.592 12.2014C10.7209 12.0724 10.8958 12 11.0781 12H12.4531C12.6355 12 12.8103 12.0724 12.9393 12.2014C13.0682 12.3303 13.1406 12.5052 13.1406 12.6875V14.0625C13.1406 14.2449 13.0682 14.4197 12.9393 14.5487C12.8103 14.6776 12.6355 14.75 12.4531 14.75H11.0781C10.8958 14.75 10.7209 14.6776 10.592 14.5487C10.4631 14.4197 10.3906 14.2449 10.3906 14.0625V12.6875ZM15.2031 12H16.5781C16.7605 12 16.9353 12.0724 17.0643 12.2014C17.1932 12.3303 17.2656 12.5052 17.2656 12.6875V14.0625C17.2656 14.2449 17.1932 14.4197 17.0643 14.5487C16.9353 14.6776 16.7605 14.75 16.5781 14.75H15.2031C15.0208 14.75 14.8459 14.6776 14.717 14.5487C14.5881 14.4197 14.5156 14.2449 14.5156 14.0625V12.6875C14.5156 12.5052 14.5881 12.3303 14.717 12.2014C14.8459 12.0724 15.0208 12 15.2031 12Z" fill="#03045E"/>
</g>
<defs>
<clipPath id="clip0_155_9525">
<rect width="22" height="22" fill="white" transform="translate(0.5 0.500015)"/>
</clipPath>
</defs>
</svg>
