<svg width="78" height="217" viewBox="0 0 78 217" fill="none" xmlns="http://www.w3.org/2000/svg">
<path d="M0.678711 61.4132C1.30937 62.5385 3.03391 61.4132 6.04767 60.1175C9.06144 58.8218 7.85036 44.18 7.85036 44.18C7.85036 44.18 3.03392 44.18 2.16886 49.1133C1.3038 54.0466 0.678711 61.4132 0.678711 61.4132Z" fill="#263238"/>
<path d="M25.7214 35.7401C28.5845 35.6611 34.8464 39.2561 35.8398 41.6711C36.8835 44.2016 40.6563 78.4428 38.2341 81.6425C35.198 85.6633 20.2464 93.5347 13.6775 93.3097C8.26948 93.1272 3.12933 87.7255 2.30334 86.15C0.952724 83.5647 2.63819 48.3198 4.35157 45.3513C7.15326 40.5275 22.0993 35.8071 25.7214 35.7401Z" fill="#83C1CE"/>
<path opacity="0.5" d="M25.7214 35.7401C28.5845 35.6611 34.8464 39.2561 35.8398 41.6711C36.8835 44.2016 40.6563 78.4428 38.2341 81.6425C35.198 85.6633 20.2464 93.5347 13.6775 93.3097C8.26948 93.1272 3.12933 87.7255 2.30334 86.15C0.952724 83.5647 2.63819 48.3198 4.35157 45.3513C7.15326 40.5275 22.0993 35.8071 25.7214 35.7401Z" fill="black"/>
<path d="M2.35304 63.2249C2.43676 61.7467 2.52605 60.2929 2.62651 58.8816C2.66558 58.3159 2.70465 57.7623 2.74929 57.2149C2.83301 56.1199 2.92231 55.0676 3.0116 54.07C3.05625 53.5712 3.1009 53.0845 3.15113 52.61C3.22368 51.9044 3.29625 51.2353 3.3688 50.6087C3.44135 49.9822 3.51948 49.3921 3.59204 48.8568C3.61994 48.6804 3.64784 48.504 3.67016 48.3337C3.77295 47.3054 4.01365 46.2991 4.38455 45.3469C4.46643 45.2055 4.55587 45.0694 4.65243 44.9394C4.68284 44.8921 4.71641 44.8474 4.75289 44.8056C4.82076 44.7081 4.89343 44.6147 4.97056 44.5257L5.11008 44.3615C5.18264 44.2763 5.26635 44.1912 5.35006 44.0999L5.50076 43.9357L5.89143 43.5646L6.15932 43.3274L6.34349 43.1631L6.66161 42.9077L6.81788 42.7799L7.18623 42.494C9.73677 43.6498 12.1478 44.7508 12.2092 44.8056C12.2706 44.8603 14.9606 46.6305 14.8378 50.9372V68.4502V70.1108C14.8044 72.4345 16.6461 93.8345 10.6242 92.6179L10.3842 92.5693C6.32676 91.012 2.97812 87.3622 2.35304 86.1456C2.20637 85.7729 2.11772 85.3761 2.09073 84.9716C2.06283 84.7404 2.03493 84.491 2.01261 84.2112C2.01261 84.0713 2.01261 83.9253 2.01261 83.7733C1.97912 83.317 1.9568 82.806 1.94005 82.2464C1.94005 82.0639 1.94005 81.8693 1.94005 81.6746C1.86192 78.7365 1.94004 74.667 2.08515 70.3116C2.11305 69.4417 2.15212 68.5597 2.19119 67.6716C2.19119 67.0633 2.24143 66.4854 2.26933 65.8892L2.31956 65.0011C2.27491 64.405 2.3084 63.8149 2.35304 63.2249Z" fill="#83C1CE"/>
<path opacity="0.4" d="M2.35304 63.2249C2.43676 61.7467 2.52605 60.2929 2.62651 58.8816C2.66558 58.3159 2.70465 57.7623 2.74929 57.2149C2.83301 56.1199 2.92231 55.0676 3.0116 54.07C3.05625 53.5712 3.1009 53.0845 3.15113 52.61C3.22368 51.9044 3.29625 51.2353 3.3688 50.6087C3.44135 49.9822 3.51948 49.3921 3.59204 48.8568C3.61994 48.6804 3.64784 48.504 3.67016 48.3337C3.77295 47.3054 4.01365 46.2991 4.38455 45.3469C4.46643 45.2055 4.55587 45.0694 4.65243 44.9394C4.68284 44.8921 4.71641 44.8474 4.75289 44.8056C4.82076 44.7081 4.89343 44.6147 4.97056 44.5257L5.11008 44.3615C5.18264 44.2763 5.26635 44.1912 5.35006 44.0999L5.50076 43.9357L5.89143 43.5646L6.15932 43.3274L6.34349 43.1631L6.66161 42.9077L6.81788 42.7799L7.18623 42.494C9.73677 43.6498 12.1478 44.7508 12.2092 44.8056C12.2706 44.8603 14.9606 46.6305 14.8378 50.9372V68.4502V70.1108C14.8044 72.4345 16.6461 93.8345 10.6242 92.6179L10.3842 92.5693C6.32676 91.012 2.97812 87.3622 2.35304 86.1456C2.20637 85.7729 2.11772 85.3761 2.09073 84.9716C2.06283 84.7404 2.03493 84.491 2.01261 84.2112C2.01261 84.0713 2.01261 83.9253 2.01261 83.7733C1.97912 83.317 1.9568 82.806 1.94005 82.2464C1.94005 82.0639 1.94005 81.8693 1.94005 81.6746C1.86192 78.7365 1.94004 74.667 2.08515 70.3116C2.11305 69.4417 2.15212 68.5597 2.19119 67.6716C2.19119 67.0633 2.24143 66.4854 2.26933 65.8892L2.31956 65.0011C2.27491 64.405 2.3084 63.8149 2.35304 63.2249Z" fill="black"/>
<path opacity="0.5" d="M3.83762 47.2978C3.9347 46.6226 4.12276 45.9666 4.39572 45.3513C7.18625 40.5396 22.1211 35.8071 25.7432 35.7401C28.584 35.6611 34.8459 39.2561 35.8393 41.6711C36.1352 42.6975 36.3499 43.7496 36.4811 44.816C30.7996 48.1008 16.1327 55.4004 14.6258 54.8043C12.7729 54.0682 3.99388 47.5898 3.83203 47.31L3.83762 47.2978Z" fill="black"/>
<path d="M1.1532 70.1726C1.32622 70.0814 3.82094 68.0557 4.11115 67.8976C4.62461 67.6178 11.9804 73.0985 12.6613 74.0292C13.1357 74.674 12.3488 84.6137 12.0586 85.3193C11.9525 85.5748 9.20665 87.3389 9.10061 87.5943C8.81039 88.3 1.036 82.7279 0.556029 81.3836C0.076059 80.0392 0.405345 70.5802 1.1532 70.1726Z" fill="#83C1CE"/>
<path opacity="0.18" d="M1.1532 70.1726C1.32622 70.0814 3.82094 68.0557 4.11115 67.8976C4.62461 67.6178 11.9804 73.0985 12.6613 74.0292C13.1357 74.674 12.3488 84.6137 12.0586 85.3193C11.9525 85.5748 9.20665 87.3389 9.10061 87.5943C8.81039 88.3 1.036 82.7279 0.556029 81.3836C0.076059 80.0392 0.405345 70.5802 1.1532 70.1726Z" fill="black"/>
<path d="M9.70337 76.3025C10.1778 76.9534 9.3964 86.887 9.10061 87.5987C8.80481 88.3104 1.036 82.7323 0.556029 81.3879C0.076059 80.0436 0.405345 70.5845 1.1532 70.177C1.66666 69.8972 9.05039 75.3779 9.70337 76.3025Z" fill="#83C1CE"/>
<path opacity="0.4" d="M4.11156 67.8976C3.82134 68.0557 1.32103 70.0814 1.15918 70.1726C1.66705 69.8928 9.02847 75.3736 9.70378 76.2982L12.6617 74.0292C11.9808 73.0985 4.62501 67.6178 4.11156 67.8976Z" fill="black"/>
<path opacity="0.3" d="M9.70337 76.3025C10.1778 76.9534 9.3964 86.887 9.10061 87.5987C8.80481 88.3104 1.036 82.7323 0.556029 81.3879C0.076059 80.0436 0.405345 70.5845 1.1532 70.177C1.66666 69.8972 9.05039 75.3779 9.70337 76.3025Z" fill="black"/>
<path d="M12.6613 74.0283C12.1032 73.6329 10.4624 74.5758 9.75358 75.2449C9.04478 75.9141 8.25228 79.0164 6.40495 79.503C4.55762 79.9897 1.99592 77.3314 1.46572 75.6403C0.935521 73.9492 0.304856 70.3846 1.19782 69.1254C2.09079 67.8663 3.64233 67.1789 4.93713 67.9514C6.23193 68.7239 12.5106 72.4711 12.6613 74.0283Z" fill="#83C1CE"/>
<path opacity="0.1" d="M12.6613 74.0283C12.1032 73.6329 10.4624 74.5758 9.75358 75.2449C9.04478 75.9141 8.25228 79.0164 6.40495 79.503C4.55762 79.9897 1.99592 77.3314 1.46572 75.6403C0.935521 73.9492 0.304856 70.3846 1.19782 69.1254C2.09079 67.8663 3.64233 67.1789 4.93713 67.9514C6.23193 68.7239 12.5106 72.4711 12.6613 74.0283Z" fill="black"/>
<path d="M4.40763 75.3551C4.61787 75.5012 4.78766 75.7069 4.89876 75.9501C5.00987 76.1934 5.05811 76.4651 5.03829 76.7359C5.03729 76.8428 5.0105 76.9475 4.96059 77.0394C4.91068 77.1314 4.83942 77.2074 4.75399 77.2599C4.66856 77.3123 4.57195 77.3392 4.47392 77.338C4.37588 77.3368 4.27987 77.3075 4.19555 77.253C3.98217 77.1105 3.80989 76.9054 3.69836 76.6612C3.58684 76.4171 3.54059 76.1436 3.5649 75.8722C3.62629 75.3429 4.02812 75.1057 4.40763 75.3551Z" fill="#37474F"/>
<path d="M14.8325 54.8397C14.8325 54.8397 13.8447 50.7154 9.29053 47.8017C4.73639 44.8879 4.59687 45.8004 3.12348 48.5742C1.79519 51.0743 1.21475 60.4117 1.14778 61.3059C1.08081 62.2001 0.0985523 62.0237 0.282727 56.3118C0.466901 50.5998 1.2315 45.1312 6.14283 41.7795C12.7564 37.2598 22.9697 34.3522 27.7638 35.5262C32.5579 36.7002 36.8609 39.3524 36.487 44.8149C36.487 44.8149 30.2083 53.8421 14.8325 54.8397Z" fill="#37474F"/>
<path d="M12.9579 188.956C13.516 180.774 12.6509 174.497 13.2983 161.716C13.3597 158.444 13.4714 154.934 13.6779 151.813C14.3811 141.32 15.9103 137.737 16.061 135.711C16.061 135.711 16.3289 119.391 16.9763 96.4336C17.2832 85.6363 20.2635 82.3636 22.641 76.6334H52.2206C53.8949 90.5148 54.9832 121.648 54.8883 136.21C54.8437 143.638 51.9862 183.396 51.9304 184.309C51.7294 187.551 51.9973 188.834 53.2084 190.197C55.7422 193.056 59.409 195.775 62.5846 198.263C62.1269 199.54 58.3095 199.48 56.4175 198.525C53.9464 197.178 51.5846 195.605 49.3575 193.822C46.7511 191.791 43.4193 190.173 43.3746 187.07C43.363 186.885 43.3331 186.701 43.2853 186.523C43.2407 184.698 39.2391 158.127 38.9098 151.953C38.6196 146.649 39.2335 137.646 39.2335 137.646L35.9797 115.169C35.9797 115.169 33.9705 128.454 31.9446 137.524C30.2703 144.909 27.5635 157.507 25.705 166.595C23.9191 177.064 21.2904 184.515 20.8383 189.753C20.6988 191.006 19.3538 203.281 18.7957 206.098C18.2376 208.914 12.3998 208.969 12.037 204.163C11.7859 200.915 12.8575 190.519 12.9579 188.956Z" fill="#9E6767"/>
<path d="M35.9795 115.157L38.3626 98.9271C38.3626 98.9271 47.5602 97.7957 50.9088 94.4135C50.9088 94.4135 46.6895 100.673 40.4443 101.713L37.8212 115.157L39.1886 137.439L35.9795 115.157Z" fill="#874C4C"/>
<path d="M67.9648 201.534C68.1267 201.534 68.389 203.401 67.5239 204.204C66.5193 205.135 63.567 206.674 59.6379 206.181C55.7089 205.688 53.5713 204.441 51.9863 203.079C50.4013 201.716 48.18 199.788 46.4053 199.398C44.7309 199.033 42.9562 198.267 42.4204 197.738C41.8846 197.209 41.9348 194.824 41.9348 194.824L67.9648 201.534Z" fill="#263238"/>
<path d="M43.207 185.633C43.207 185.633 42.9112 185.633 42.8163 186.199C42.6991 186.862 42.5875 188.772 42.3419 189.849C41.954 191.751 41.8428 193.707 42.0126 195.646C42.2414 196.863 44.9371 197.678 46.6616 198.347C48.6764 199.258 50.5569 200.488 52.2427 201.997C54.1068 203.578 58.0023 205.135 60.5584 205.148C64.4652 205.148 66.9822 204.022 67.7468 202.538C68.6956 200.713 67.9254 199.655 63.4159 197.52C62.562 197.112 59.5594 195.287 58.5381 194.63C57.4546 193.937 56.4243 193.15 55.4574 192.276C54.9721 191.834 54.51 191.363 54.0733 190.865C53.6228 190.425 53.2353 189.915 52.9236 189.35C52.8678 189.228 52.8343 189.082 52.7896 188.955C52.6571 188.596 52.5543 188.226 52.4827 187.848C52.4045 187.458 52.3543 186.886 51.9971 186.631C51.4865 186.421 50.9348 186.358 50.3953 186.449C49.8135 186.499 49.2354 186.592 48.6652 186.728C48.0067 186.893 47.2421 186.959 46.857 187.616C46.6018 188.144 46.4805 188.736 46.5054 189.332C46.5054 189.606 46.5054 189.885 46.5054 190.159C46.5054 190.275 46.5556 190.488 46.3993 190.439C46.2431 190.39 46.0812 189.989 46.0198 189.831C45.8914 189.52 45.8077 189.192 45.6682 188.894C45.519 188.538 45.3316 188.204 45.1101 187.896C44.8968 187.618 44.6553 187.367 44.3902 187.148C44.123 186.991 43.864 186.819 43.6144 186.631C43.3883 186.352 43.2462 186.003 43.207 185.633Z" fill="#37474F"/>
<path d="M64.1636 197.847C58.5156 198.322 56.7743 202.014 56.5566 204.289C57.8523 204.785 59.2085 205.068 60.5806 205.129C64.4873 205.129 67.1606 204.003 67.9308 202.519C68.8238 200.785 68.2099 199.405 64.1636 197.847Z" fill="#FAFAFA"/>
<path d="M55.6919 198.006C55.6296 198.007 55.5687 197.986 55.5189 197.945C55.4903 197.922 55.4663 197.894 55.4484 197.86C55.4305 197.827 55.4191 197.79 55.4149 197.752C55.4107 197.714 55.4138 197.675 55.424 197.638C55.4342 197.601 55.4513 197.567 55.4742 197.538C56.1366 196.808 56.9316 196.238 57.8081 195.863C58.6846 195.488 59.6233 195.316 60.5641 195.36C60.5996 195.362 60.6343 195.372 60.6661 195.389C60.6979 195.407 60.7262 195.431 60.7492 195.461C60.7721 195.49 60.7893 195.525 60.7997 195.562C60.8101 195.599 60.8135 195.638 60.8097 195.676C60.8013 195.754 60.7649 195.826 60.7084 195.875C60.652 195.924 60.5801 195.946 60.5083 195.938C59.6638 195.911 58.823 196.071 58.0365 196.408C57.2501 196.744 56.5342 197.251 55.9319 197.896C55.9044 197.936 55.8677 197.968 55.8255 197.987C55.7833 198.006 55.7372 198.013 55.6919 198.006Z" fill="#F0F0F0"/>
<path d="M53.2417 196.542C53.1791 196.546 53.1173 196.524 53.0687 196.481C53.0401 196.459 53.0161 196.43 52.9982 196.397C52.9803 196.363 52.9689 196.326 52.9647 196.288C52.9605 196.25 52.9636 196.211 52.9738 196.174C52.984 196.137 53.0011 196.103 53.024 196.074C53.6868 195.345 54.4819 194.775 55.3583 194.4C56.2347 194.025 57.1732 193.853 58.1139 193.896C58.1514 193.896 58.1883 193.905 58.2224 193.922C58.2566 193.939 58.2871 193.963 58.3121 193.993C58.337 194.024 58.3559 194.059 58.3674 194.098C58.3789 194.137 58.3828 194.178 58.3789 194.219C58.375 194.259 58.3633 194.298 58.3446 194.334C58.326 194.369 58.3007 194.4 58.2705 194.424C58.2403 194.448 58.2057 194.465 58.1692 194.473C58.1326 194.482 58.0948 194.482 58.0581 194.474C57.2084 194.443 56.3618 194.601 55.5701 194.939C54.7784 195.277 54.0583 195.787 53.4538 196.439C53.4275 196.472 53.3949 196.498 53.3583 196.516C53.3216 196.534 53.2818 196.543 53.2417 196.542Z" fill="#F0F0F0"/>
<path d="M50.9699 194.87C50.9054 194.868 50.8431 194.845 50.7913 194.803C50.7638 194.779 50.7409 194.75 50.724 194.716C50.7071 194.683 50.6965 194.646 50.6928 194.608C50.6892 194.57 50.6926 194.532 50.7028 194.495C50.713 194.459 50.7298 194.425 50.7522 194.395C51.4153 193.667 52.2103 193.097 53.0867 192.722C53.963 192.347 54.9015 192.175 55.8421 192.218C55.8774 192.221 55.9117 192.231 55.9431 192.249C55.9746 192.267 56.0025 192.291 56.0253 192.32C56.0481 192.35 56.0654 192.384 56.0761 192.42C56.0868 192.457 56.0908 192.496 56.0877 192.534C56.0851 192.573 56.075 192.612 56.0581 192.647C56.0412 192.681 56.0178 192.712 55.9895 192.737C55.9612 192.761 55.9285 192.779 55.8936 192.789C55.8586 192.799 55.8221 192.802 55.7863 192.796C54.9366 192.765 54.09 192.923 53.2983 193.261C52.5066 193.599 51.7865 194.109 51.182 194.76C51.1267 194.825 51.0508 194.864 50.9699 194.87Z" fill="#F0F0F0"/>
<path d="M48.7432 193.214C48.6809 193.216 48.62 193.194 48.5702 193.153C48.5412 193.131 48.5167 193.103 48.4983 193.07C48.4799 193.037 48.4679 193 48.4632 192.962C48.4585 192.923 48.4611 192.884 48.4709 192.847C48.4807 192.81 48.4974 192.776 48.52 192.746C49.5915 191.292 52.0249 190.313 54.101 190.532C54.1367 190.534 54.1717 190.544 54.2037 190.561C54.2358 190.578 54.2644 190.603 54.2878 190.632C54.3112 190.662 54.329 190.696 54.34 190.733C54.3511 190.77 54.3552 190.809 54.3522 190.848C54.3438 190.926 54.3074 190.997 54.2509 191.046C54.1944 191.095 54.1225 191.118 54.0508 191.11C52.1979 190.921 49.9264 191.815 48.9776 193.099C48.9493 193.136 48.9135 193.166 48.8728 193.186C48.8322 193.206 48.7878 193.216 48.7432 193.214Z" fill="#F0F0F0"/>
<path d="M20.6261 208.275C20.4754 211.079 20.068 212.94 19.1136 214.583C18.1593 216.225 16.3845 216.742 14.5762 216.262C12.768 215.781 10.4518 214.491 9.9328 212.076C9.41376 209.662 9.11239 208.001 9.52539 205.385L20.6261 208.275Z" fill="#263238"/>
<path d="M13.0303 187.975C12.288 188.036 12.0647 191.801 11.635 195.566C11.1774 199.612 10.0277 201.278 9.62024 204.594C9.14585 208.377 9.74303 210.068 11.0043 212.355C12.2657 214.643 16.7305 216.887 18.9294 213.609C20.721 210.938 20.7991 207.976 20.6317 204.198C20.5399 201.004 20.62 197.807 20.8716 194.624C21.0167 191.789 21.6139 188.93 20.9665 188.613C20.9163 189.033 20.8716 189.562 20.8158 189.97C20.7922 190.482 20.7116 190.988 20.5758 191.479C20.5033 191.691 20.3359 191.91 20.2689 191.57C20.2326 191.336 20.2326 191.098 20.2689 190.864C20.3749 189.818 19.8782 189.733 19.6047 189.648C18.462 189.411 17.3089 189.239 16.1501 189.131C15.592 189.094 13.6219 189.003 13.3596 189.343C13.1935 189.68 13.1071 190.056 13.1084 190.438C13.047 191.01 12.9186 191.424 12.9019 191.247C12.8684 190.84 12.941 189.775 12.9521 189.52C12.9633 189.264 13.0024 188.942 13.0024 188.693C13.0024 188.443 13.0135 188.218 13.0303 187.975Z" fill="#37474F"/>
<path d="M9.41362 206.787C9.27857 208.818 9.7675 210.84 10.8033 212.535C12.0646 214.829 16.8866 217.079 19.0912 213.8C20.2074 212.17 20.4753 210.242 20.6259 208.277C19.3088 205.753 11.4898 204.639 9.41362 206.787Z" fill="#FAFAFA"/>
<path d="M19.0023 204.162C18.9727 204.168 18.9425 204.168 18.913 204.162C18.8795 204.162 15.436 202.648 12.0818 203.463C12.0123 203.481 11.9388 203.469 11.8773 203.43C11.8157 203.39 11.7709 203.325 11.7525 203.25C11.7435 203.212 11.7417 203.172 11.7474 203.133C11.753 203.095 11.7659 203.058 11.7853 203.024C11.8047 202.991 11.8301 202.963 11.86 202.941C11.8899 202.919 11.9236 202.904 11.959 202.897C14.3723 202.423 16.8588 202.679 19.1474 203.639C19.1803 203.654 19.2101 203.677 19.2348 203.705C19.2596 203.733 19.2788 203.766 19.2914 203.802C19.3039 203.839 19.3095 203.878 19.3078 203.917C19.306 203.955 19.297 203.994 19.2813 204.028C19.2512 204.077 19.209 204.116 19.1596 204.14C19.1102 204.163 19.0556 204.171 19.0023 204.162Z" fill="#F0F0F0"/>
<path d="M12.2493 200.616C12.1972 200.612 12.1475 200.591 12.1059 200.556C12.0644 200.522 12.0328 200.475 12.0148 200.422C12.0036 200.385 11.9991 200.346 12.0017 200.308C12.0043 200.269 12.0139 200.231 12.03 200.197C12.0461 200.162 12.0684 200.131 12.0955 200.106C12.1226 200.081 12.154 200.062 12.1879 200.051C15.5365 198.864 19.2311 200.659 19.3707 200.726C19.4021 200.743 19.4302 200.766 19.4532 200.795C19.4762 200.824 19.4937 200.857 19.5047 200.894C19.5156 200.93 19.5197 200.968 19.5168 201.006C19.514 201.044 19.5041 201.081 19.4879 201.115C19.4515 201.184 19.3925 201.234 19.323 201.257C19.2535 201.279 19.1788 201.272 19.1139 201.237C19.0805 201.237 15.4695 199.491 12.3665 200.629C12.3271 200.631 12.2876 200.626 12.2493 200.616Z" fill="#F0F0F0"/>
<path d="M12.3657 197.959C12.3138 197.954 12.2644 197.932 12.223 197.898C12.1815 197.864 12.1498 197.817 12.1313 197.764C12.1191 197.728 12.1137 197.689 12.1156 197.651C12.1175 197.612 12.1265 197.574 12.1422 197.54C12.1578 197.505 12.1798 197.474 12.2067 197.449C12.2336 197.424 12.2649 197.405 12.2987 197.393C15.971 196.012 19.4871 197.959 19.621 198.044C19.6511 198.064 19.6773 198.09 19.698 198.121C19.7188 198.152 19.7337 198.187 19.742 198.225C19.7503 198.262 19.7518 198.301 19.7463 198.339C19.7409 198.376 19.7287 198.413 19.7103 198.446C19.6703 198.511 19.6088 198.558 19.5382 198.576C19.4677 198.594 19.3936 198.582 19.3308 198.543C19.3029 198.543 15.904 196.657 12.4884 197.935C12.4494 197.951 12.4077 197.96 12.3657 197.959Z" fill="#F0F0F0"/>
<path d="M12.55 195.335C12.4994 195.33 12.4509 195.311 12.4096 195.279C12.3683 195.247 12.3358 195.203 12.3157 195.152C12.3033 195.116 12.2976 195.077 12.299 195.039C12.3005 195 12.309 194.962 12.3241 194.927C12.3391 194.892 12.3605 194.86 12.3868 194.834C12.4131 194.808 12.444 194.788 12.4775 194.775C15.921 193.419 19.705 195.42 19.8445 195.505C19.8757 195.523 19.9034 195.547 19.9258 195.577C19.9481 195.607 19.9648 195.641 19.9747 195.678C19.9846 195.715 19.9875 195.754 19.9834 195.792C19.9792 195.83 19.9681 195.867 19.9505 195.9C19.9132 195.969 19.8525 196.02 19.7814 196.04C19.7104 196.061 19.6348 196.05 19.571 196.01C19.5375 196.01 15.8652 194.057 12.6728 195.316C12.634 195.334 12.5917 195.34 12.55 195.335Z" fill="#EBEBEB"/>
<path d="M21.8875 76.7452C18.5389 83.1628 16.0553 88.4124 15.7149 107.501C15.3744 126.589 15.4302 131.942 15.3632 134.266C15.2963 136.59 14.0182 140.684 12.8964 152.022C11.7746 163.361 13.1029 176.871 13.1029 176.871C13.1029 176.871 13.8731 178.696 17.9975 179.086C21.8038 179.445 23.6846 177.942 23.6846 177.942C23.6846 177.942 28.9029 155.861 30.3428 149.036C31.7827 142.21 35.9796 119.746 35.9796 119.746L38.4688 137.958C38.4688 137.958 37.3079 144.218 38.4688 154.164C39.6296 164.109 41.6723 174.292 41.6723 174.292C43.5552 174.979 45.5302 175.318 47.5157 175.296C49.3096 175.327 51.0791 174.84 52.6446 173.885C52.6446 173.885 55.8761 144.297 55.8761 133.025C55.8761 121.753 54.2017 93.1511 52.8902 76.8791L21.8875 76.7452Z" fill="#37474F"/>
<path d="M35.9795 119.723L39.3783 98.0494C39.3783 98.0494 46.5444 97.508 50.5404 93.1283C48.9219 97.7818 43.0395 101.036 40.4555 101.693L37.4194 119.48L38.4798 137.936L35.9795 119.723Z" fill="#263238"/>
<path d="M16.306 138.399C17.5282 133.326 18.9011 127.584 19.0072 113.459C19.1188 98.2515 20.821 88.3545 24.8729 79.3212L25.431 79.5889C22.9594 85.1875 21.3294 91.1827 20.6034 97.3451C21.8424 97.6736 23.1428 97.8196 24.3706 97.0106C25.9109 95.9947 27.016 93.6041 27.6634 89.9056C29.2093 81.0366 30.9674 78.1594 31.0399 78.0438L31.5366 78.3844C31.5366 78.4149 29.7674 81.3104 28.2494 90.0212C27.5629 93.9508 26.3965 96.4084 24.6887 97.5398C23.9763 98.0059 23.1587 98.246 22.3279 98.2333C21.7176 98.2223 21.1106 98.1325 20.5196 97.9656C19.9239 103.107 19.6257 108.283 19.6267 113.465C19.5207 127.645 18.131 133.429 16.9087 138.533C16.6799 139.482 16.4567 140.413 16.2446 141.374C14.9386 147.353 13.5322 164.489 14.2689 177.951C14.0462 177.819 13.8367 177.662 13.6438 177.483C12.9685 164.027 14.3638 147.177 15.6641 141.234C15.8539 140.291 16.0827 139.348 16.306 138.399Z" fill="#263238"/>
<path d="M43.5532 99.259C43.6649 100.476 46.2935 129.066 45.6796 135.149C45.5345 136.596 45.3559 137.947 45.1829 139.249C44.3438 144.947 44.1097 150.731 44.4853 156.488C44.8759 164.055 45.0434 171.257 45.1215 175.144L44.5243 175.053C44.4518 171.148 44.2788 164.013 43.8881 156.524C43.506 150.727 43.7438 144.901 44.5969 139.164C44.7643 137.862 44.9429 136.517 45.088 135.082C45.6908 129.047 42.984 99.6301 42.9561 99.332L43.5532 99.259Z" fill="#263238"/>
<path d="M42.4531 39.3537C47.4426 39.3537 50.2052 42.4804 53.9278 45.5036C59.9553 50.37 66.8925 55.6683 66.8925 55.6683C66.8925 55.6683 70.5202 47.1521 70.5872 44.6581C70.6542 42.1641 65.6256 40.2601 65.6256 40.2601C65.6256 40.2601 62.757 39.0982 60.8985 38.4352C59.04 37.7721 60.9878 36.002 63.2872 36.1602C65.5866 36.3183 67.6181 37.4923 68.0925 36.9144C68.5668 36.3366 67.5343 32.7415 68.0925 31.6952C68.6506 30.649 70.749 30.4786 72.3006 31.6952C73.8521 32.9118 77.4072 36.6711 77.9207 40.5703C78.4341 44.4695 76.3747 60.0663 74.2707 66.1615C72.987 69.9025 70.7713 71.4172 65.7484 69.0205C61.0603 66.7759 48.6425 57.2256 48.6425 57.2256L42.4531 39.3537Z" fill="#9E6767"/>
<path d="M73.6177 44.7875C72.4066 44.4043 70.9611 41.7095 71.6308 38.7045C72.3005 35.6995 73.1488 37.8407 73.1488 37.8407L73.6177 44.7875Z" fill="#874C4C"/>
<path d="M58.1309 30.3569C58.9848 30.6002 59.1578 32.2731 58.7503 32.7901C59.8219 33.4836 59.8331 34.9678 58.9624 35.3571C59.1299 35.9654 59.6657 37.9911 58.1532 38.9035C58.1532 38.9035 59.6768 40.1201 61.0609 39.4023C62.445 38.6845 63.1147 33.3862 62.1325 31.6526C61.1502 29.9189 58.7225 29.7243 58.1309 30.3569Z" fill="#83C1CE"/>
<path opacity="0.6" d="M58.1309 30.3569C58.9848 30.6002 59.1578 32.2731 58.7503 32.7901C59.8219 33.4836 59.8331 34.9678 58.9624 35.3571C59.1299 35.9654 59.6657 37.9911 58.1532 38.9035C58.1532 38.9035 59.6768 40.1201 61.0609 39.4023C62.445 38.6845 63.1147 33.3862 62.1325 31.6526C61.1502 29.9189 58.7225 29.7243 58.1309 30.3569Z" fill="white"/>
<path d="M70.9278 40.8486C70.7057 41.0942 70.4709 41.3257 70.2246 41.5421C70.0739 41.6759 69.9232 41.7915 69.7669 41.9071H69.7223C69.6385 41.9679 69.5548 42.0287 69.4655 42.0835C69.3762 42.1382 69.2925 42.193 69.2032 42.2355C69.1139 42.2781 69.0302 42.3329 68.9409 42.3815C65.5923 44.03 60.9656 43.221 58.7109 39.9483C58.4789 39.6143 58.2753 39.258 58.1025 38.8838H58.1639C58.6102 38.933 59.0573 38.8009 59.4197 38.5127C59.4538 38.4856 59.4856 38.4551 59.5145 38.4215C59.6668 38.2708 59.7795 38.0788 59.8413 37.865C59.9031 37.6513 59.9116 37.4235 59.8661 37.2049C60.146 37.2448 60.4306 37.1952 60.6851 37.0621C60.9396 36.929 61.1532 36.7182 61.2998 36.4553C61.4464 36.1924 61.5198 35.8887 61.511 35.5811C61.5022 35.2736 61.4116 34.9755 61.2502 34.723C61.2165 34.6864 61.1932 34.64 61.1833 34.5892C61.1869 34.5287 61.2084 34.471 61.2447 34.425C61.4855 34.11 61.6299 33.7207 61.6577 33.3118C61.6385 33.104 61.5744 32.9041 61.4706 32.7286C61.3668 32.553 61.2262 32.4068 61.0605 32.302C60.7277 32.0932 60.3592 31.9607 59.9778 31.9127C60.0055 31.6574 59.9734 31.3987 59.8845 31.1606C59.7956 30.9225 59.6528 30.7129 59.4694 30.5513C59.286 30.3897 59.0681 30.2814 58.8359 30.2365C58.6036 30.1916 58.3648 30.2116 58.1416 30.2946C58.4684 29.6185 58.9207 29.0239 59.4699 28.5488C61.9535 26.4988 64.9895 27.8492 65.7486 28.4028C66.8648 29.224 67.8247 28.8347 68.7791 29.0902C70.0013 29.4247 72.1277 30.0513 72.9425 33.3483C73.6178 36.1465 72.5798 39.0055 70.9278 40.8486Z" fill="#83C1CE"/>
<path opacity="0.1" d="M70.9278 40.8471C70.7057 41.0926 70.4709 41.3241 70.2246 41.5405C70.0739 41.6744 69.9232 41.7899 69.7669 41.9055H69.7223C69.6385 41.9663 69.5548 42.0272 69.4655 42.0819C69.3762 42.1367 69.2925 42.1914 69.2032 42.234C69.1139 42.2766 69.0302 42.3313 68.9409 42.38C65.5923 44.0285 60.9656 43.2194 58.7109 39.9468C58.4789 39.6128 58.2753 39.2565 58.1025 38.8823H58.1639C58.6102 38.9315 59.0573 38.7994 59.4197 38.5112C59.4538 38.4841 59.4856 38.4535 59.5145 38.42C59.8129 38.8581 60.1597 39.2544 60.547 39.6001C63.4157 42.2097 67.8973 42.5138 70.9278 40.8471Z" fill="black"/>
<g opacity="0.1">
<path d="M69.8397 30.6178C70.6545 30.7091 71.6815 31.7188 72.0721 33.051C72.484 34.7701 72.3923 36.5865 71.8098 38.2459C70.8052 41.1961 67.825 42.2363 67.6073 41.9261C67.3896 41.6159 69.7002 40.0221 69.1421 36.7677C68.584 33.5133 68.5114 30.4718 69.8397 30.6178Z" fill="white"/>
</g>
<g opacity="0.1">
<path d="M70.3756 31.2427C71.1346 31.711 71.8322 33.323 71.9048 34.3754C71.9773 35.4278 71.7374 36.0847 71.5923 36.2003C71.3299 36.3645 69.9849 34.2659 69.5831 33.3656C69.0138 32.0699 69.1478 30.4884 70.3756 31.2427Z" fill="white"/>
</g>
<path opacity="0.2" d="M67.0271 31.5053C67.5238 31.2194 67.9647 31.1099 68.0875 31.7243C68.2102 32.3386 66.8931 32.9895 65.682 32.3326C64.4709 31.6756 64.1863 30.6476 64.3035 30.1913C64.5343 30.8187 64.981 31.323 65.5481 31.5965C66.0355 31.7571 66.5593 31.7248 67.0271 31.5053Z" fill="black"/>
<path d="M73.6173 44.7884C71.4463 43.4259 72.3225 38.8454 72.5513 38.1884C72.7801 37.5314 72.5513 36.7102 71.9151 35.9073C71.4868 35.2779 70.9074 34.7895 70.2408 34.496C69.878 34.4473 68.4381 34.8792 67.6288 34.496C66.8196 34.1128 66.5126 33.3646 66.9145 32.9448C67.3163 32.5251 69.3757 31.9898 70.2966 32.0932C71.0351 32.2527 71.7383 32.5667 72.3672 33.0178C71.823 32.2328 71.2079 31.5093 70.531 30.8584C69.8613 30.3535 68.639 30.2501 68.1144 30.1771C67.5898 30.1041 66.0996 29.6296 65.7648 28.7476C65.4299 27.8655 65.6029 27.531 66.6856 27.531C67.7684 27.531 71.3179 27.531 71.9374 28.0784C73.2011 29.4174 74.3883 30.8394 75.4925 32.3365C76.6087 33.7965 78.0319 39.5023 77.9928 41.2786C77.9538 43.0548 73.6173 44.7884 73.6173 44.7884Z" fill="#9E6767"/>
<path d="M65.7432 31.9644C65.9841 30.671 66.4018 29.4243 66.9822 28.2659C67.5493 27.1146 68.3897 26.1504 69.4155 25.4738C69.8942 25.3852 70.3845 25.4059 70.8554 25.5347C71.514 25.6746 72.2116 26.3194 71.9716 26.5505C71.7316 26.7817 70.727 26.7938 69.3764 27.7306C68.0258 28.6674 66.5301 30.7113 66.2957 32.0739C66.2029 32.1105 66.1029 32.1196 66.0059 32.1004C65.9088 32.0812 65.8182 32.0342 65.7432 31.9644Z" fill="#37474F"/>
<path d="M69.4652 25.4622H69.5321C69.9705 25.406 70.4145 25.4348 70.8437 25.5473C71.2912 25.6399 71.69 25.9138 71.9599 26.3138C71.9599 26.4233 71.8148 26.5389 71.212 26.5024C70.6234 26.4729 70.0495 26.2915 69.5377 25.9731C69.2921 25.8089 69.2363 25.5413 69.4652 25.4622Z" fill="#455A64"/>
<path opacity="0.1" d="M66.9877 29.879C67.7858 28.3705 69.5885 27.3485 70.7661 26.9774C70.2689 27.1753 69.7949 27.4366 69.3541 27.7561C67.9979 28.6868 66.5078 30.7367 66.2734 32.0993C66.1837 32.1314 66.088 32.1382 65.9953 32.1191C65.9026 32.0999 65.8158 32.0555 65.7432 31.9898C65.7432 31.9898 65.8269 31.5032 66.0166 30.8097C65.9385 31.4424 66.2566 31.266 66.9877 29.879Z" fill="black"/>
<path d="M66.5351 29.2135C66.0113 29.2226 65.4951 29.0758 65.0421 28.7889C64.5891 28.5019 64.2166 28.0857 63.9645 27.5851C63.7125 27.0845 63.5905 26.5184 63.6117 25.9479C63.633 25.3773 63.7966 24.8239 64.085 24.3471C64.553 24.3532 65.0128 24.4818 65.4256 24.7221C65.8384 24.9624 66.1921 25.3074 66.457 25.728C66.7269 26.2591 66.8749 26.8534 66.8885 27.4603C66.9021 28.0672 66.7809 28.6687 66.5351 29.2135Z" fill="#83C1CE"/>
<path opacity="0.3" d="M66.5351 29.2135C66.0113 29.2226 65.4951 29.0758 65.0421 28.7889C64.5891 28.5019 64.2166 28.0857 63.9645 27.5851C63.7125 27.0845 63.5905 26.5184 63.6117 25.9479C63.633 25.3773 63.7966 24.8239 64.085 24.3471C64.553 24.3532 65.0128 24.4818 65.4256 24.7221C65.8384 24.9624 66.1921 25.3074 66.457 25.728C66.7269 26.2591 66.8749 26.8534 66.8885 27.4603C66.9021 28.0672 66.7809 28.6687 66.5351 29.2135Z" fill="black"/>
<path d="M64.0908 24.3538C64.5588 24.3598 65.0186 24.4884 65.4314 24.7288C65.8442 24.9691 66.1979 25.3141 66.4628 25.7346C66.7317 26.265 66.8792 26.8582 66.8928 27.4639C66.9064 28.0697 66.7857 28.6701 66.5409 29.2141C66.234 26.5437 64.0908 24.3538 64.0908 24.3538Z" fill="#83C1CE"/>
<path opacity="0.2" d="M64.0908 24.3538C64.5588 24.3598 65.0186 24.4884 65.4314 24.7288C65.8442 24.9691 66.1979 25.3141 66.4628 25.7346C66.7317 26.265 66.8792 26.8582 66.8928 27.4639C66.9064 28.0697 66.7857 28.6701 66.5409 29.2141C66.234 26.5437 64.0908 24.3538 64.0908 24.3538Z" fill="black"/>
<path d="M30.1019 39.5417C27.2946 39.963 24.523 40.6302 21.8141 41.5369C20.4052 43.2836 19.5431 45.4738 19.3528 47.7902C19.1966 49.2562 19.5315 59.1168 20.3407 65.5587C21.1667 72.1405 19.4812 77.3293 18.0078 83.6556C29.6108 91.9041 49.0552 89.6838 53.866 84.6897C53.8325 79.2819 54.2455 64.7436 53.3079 54.3112C52.6773 47.2975 46.2144 42.0601 42.4584 39.3592C42.4528 39.3592 39.1209 38.2886 30.1019 39.5417Z" fill="#F0F0F0"/>
<path d="M32.6694 2.20913C34.6786 3.20674 35.5492 3.99753 37.324 1.97189C39.4001 0.14699 42.5088 0.876948 44.0659 3.13982C44.624 3.88195 45.1374 4.85523 45.9857 4.84915C46.4546 4.84915 47.0685 4.51458 47.9224 4.41725C48.5796 4.37982 49.2324 4.55429 49.7992 4.91888C50.3659 5.28348 50.8216 5.82202 51.1091 6.46723C51.3715 7.25193 51.1426 8.13397 51.0533 8.97342C50.9926 9.37582 51.0349 9.7887 51.1757 10.1665C51.3166 10.5444 51.5504 10.8725 51.8514 11.1146C52.0082 11.2131 52.1831 11.2722 52.3634 11.2876C52.5438 11.3031 52.725 11.2746 52.8939 11.2041C53.0629 11.1335 53.2153 11.0229 53.34 10.8801C53.4648 10.7373 53.5587 10.566 53.615 10.3786C54.3517 11.066 54.1731 12.5259 53.442 13.2498C53.0638 13.5758 52.6267 13.811 52.1592 13.9399C51.6918 14.0689 51.2046 14.0886 50.7296 13.998C52.4653 14.3265 53.9778 16.4859 53.1128 18.4568C52.7221 19.3206 51.8961 19.9167 51.7007 20.89C51.4608 22.064 52.2868 23.1286 52.5491 24.2904C52.7085 25.0384 52.6381 25.8227 52.3488 26.5228C52.0594 27.2229 51.567 27.7999 50.9473 28.1653C49.9371 28.7067 48.7149 28.5607 47.7438 29.1507C46.6722 29.759 46.0974 31.146 45.249 32.1314C41.0465 36.6693 38.4848 30.1301 34.327 32.2835C33.7739 32.6287 33.2557 33.0365 32.781 33.5001C32.5689 33.6826 32.3624 33.8651 32.1448 34.0293C31.9362 34.1403 31.7472 34.2907 31.5867 34.4734C31.4468 34.6816 31.266 34.8532 31.0574 34.9753C30.8488 35.0974 30.6177 35.167 30.3811 35.179C29.924 35.2003 29.4666 35.1449 29.025 35.0147C27.5962 34.6802 26.0782 34.2361 25.1182 32.9891C24.8137 32.5576 24.5358 32.1044 24.2866 31.6326C23.83 30.7145 23.1052 29.9887 22.2272 29.5705C21.2171 29.1872 19.9948 29.5096 19.113 28.8587C18.4649 28.2767 18.0294 27.461 17.8852 26.5594C17.7397 25.66 17.4467 24.7966 17.0201 24.0106C16.7311 23.5798 16.3361 23.2472 15.8807 23.0513C15.4253 22.8553 14.9283 22.8041 14.4473 22.9035C14.68 21.8344 15.2536 20.8901 16.0658 20.2391C16.6214 19.8593 17.1951 19.5121 17.7847 19.1989C17.9841 19.0862 18.1713 18.9495 18.3428 18.7914C18.516 18.6097 18.6678 18.4054 18.7949 18.1831C19.0502 17.7202 19.2278 17.2114 19.3195 16.6806C19.3586 16.4859 19.3865 16.2913 19.4088 16.0723C19.526 14.9773 19.4479 13.8702 19.593 12.7875C19.6779 11.9089 19.9529 11.0648 20.3953 10.3246C20.8377 9.58436 21.435 8.9691 22.1379 8.52936C22.7798 8.18263 23.4941 8.04881 24.1583 7.7629C24.6288 7.57952 25.0506 7.27237 25.3861 6.8687C25.5312 6.6923 25.6484 6.49764 25.7935 6.31515C25.9264 6.14838 26.0304 5.9567 26.1005 5.74943C26.356 4.91472 26.7329 4.13017 27.2167 3.42573C28.584 1.64949 30.8723 1.4305 32.6694 2.20913Z" fill="#263238"/>
<path d="M42.2627 13.6077C44.3501 13.8631 46.4039 14.1004 47.0345 18.2368C47.1461 18.9364 47.0345 19.7028 47.1182 20.5909C47.1908 21.6676 47.7377 22.8964 47.7433 24.2833C47.7712 32.1912 45.1481 34.1925 43.9873 34.7887C42.613 35.5598 41.0528 35.8468 39.5224 35.6099L39.4778 39.6916C39.4778 39.6916 42.7483 44.2903 41.3195 48.1469C31.7034 45.3974 28.4441 39.9227 28.4441 39.9227L28.4775 29.8797C27.9575 29.9358 27.4324 29.8734 26.9356 29.6965C26.4389 29.5195 25.9814 29.2318 25.5922 28.8516C23.3597 26.972 23.3597 23.2857 24.7438 21.6798C26.1279 20.0739 28.8961 20.816 29.7668 22.6531C31.7257 21.8927 31.6364 20.0495 30.883 17.6103C32.6801 17.081 34.0921 13.2853 34.3432 10.2377C36.0678 12.4215 39.0927 13.2244 42.2627 13.6077Z" fill="#9E6767"/>
<path d="M41.0576 28.5982C40.5441 28.5495 39.3833 28.2941 39.4447 27.777C39.5339 27.2154 39.4936 26.6385 39.3275 26.0981C39.2828 25.9825 39.2158 26.1407 39.2158 26.2198C39.253 27.1158 38.979 27.9941 38.4483 28.6796C37.9176 29.3651 37.1694 29.8074 36.3528 29.9182C36.3528 29.9182 36.3193 29.9851 36.3528 29.9851C36.7223 30.03 37.0963 29.9939 37.4528 29.879C37.8093 29.7641 38.1412 29.5727 38.4289 29.316C38.7247 29.0301 38.9145 28.7077 39.3665 28.7746C40.293 28.878 41.7106 29.2126 42.3357 28.3123C41.9348 28.5113 41.4979 28.609 41.0576 28.5982Z" fill="#874C4C"/>
<path d="M40.2207 18.743L41.5099 26.3468L44.892 24.1873L40.2207 18.743Z" fill="#874C4C"/>
<path d="M39.5176 35.6135C37.5084 35.2363 32.2622 34.3969 30.3535 30.6315C30.4323 31.9875 30.9785 33.2608 31.8827 34.1961C34.4556 36.532 39.5008 37.1586 39.5008 37.1586L39.5176 35.6135Z" fill="#874C4C"/>
<path d="M36.8888 17.5408L34.6843 19.238C34.4853 18.9071 34.4114 18.5053 34.478 18.1165C34.5445 17.7276 34.7464 17.3819 35.0415 17.1515C35.1851 17.0413 35.3477 16.9638 35.5194 16.9237C35.6912 16.8835 35.8686 16.8816 36.0411 16.9179C36.2135 16.9543 36.3775 17.0282 36.5232 17.1352C36.6688 17.2422 36.7932 17.3802 36.8888 17.5408Z" fill="#263238"/>
<path d="M45.8856 17.9015L43.3574 16.8126C43.4143 16.6307 43.5047 16.4634 43.6231 16.321C43.7414 16.1785 43.8852 16.0639 44.0457 15.9842C44.2061 15.9044 44.3798 15.8613 44.556 15.8573C44.7323 15.8533 44.9075 15.8886 45.0708 15.961C45.4095 16.1081 45.6832 16.3919 45.835 16.7533C45.9867 17.1147 46.0049 17.5259 45.8856 17.9015Z" fill="#263238"/>
<path d="M38.2504 21.3562C38.2504 21.5812 38.1892 21.8011 38.0745 21.9882C37.9598 22.1752 37.7968 22.321 37.6061 22.4071C37.4154 22.4932 37.2056 22.5158 37.0031 22.4719C36.8007 22.428 36.6147 22.3196 36.4688 22.1606C36.3228 22.0015 36.2234 21.7988 36.1831 21.5781C36.1429 21.3575 36.1635 21.1288 36.2425 20.9209C36.3215 20.713 36.4553 20.5354 36.6269 20.4104C36.7985 20.2854 37.0003 20.2187 37.2067 20.2187C37.3438 20.2187 37.4795 20.2481 37.6061 20.3053C37.7328 20.3624 37.8478 20.4462 37.9447 20.5519C38.0416 20.6575 38.1185 20.7829 38.1709 20.9209C38.2234 21.0589 38.2504 21.2068 38.2504 21.3562Z" fill="#263238"/>
<path d="M45.6953 20.956C45.7009 21.1822 45.6444 21.4051 45.5332 21.5961C45.4219 21.7871 45.2609 21.9376 45.0708 22.0284C44.8806 22.1192 44.67 22.1461 44.4657 22.1057C44.2615 22.0653 44.0729 21.9594 43.9241 21.8016C43.7754 21.6438 43.6732 21.4412 43.6306 21.2198C43.588 20.9984 43.607 20.7681 43.6851 20.5585C43.7632 20.3488 43.8969 20.1694 44.0691 20.043C44.2412 19.9166 44.4441 19.849 44.6517 19.8489C44.9237 19.8488 45.185 19.9645 45.38 20.1713C45.5749 20.3781 45.6881 20.6597 45.6953 20.956Z" fill="#263238"/>
<path d="M39.4727 39.5427C41.6885 40.5585 43.8128 41.7966 45.8183 43.2412C48.1433 44.8864 50.1869 46.9615 51.857 49.3728C51.1119 46.7304 49.8343 44.3029 48.1177 42.2679C45.422 39.269 43.8705 38.7702 42.3301 38.6181C41.3809 38.5382 40.4275 38.5382 39.4782 38.6181L39.4727 39.5427Z" fill="#263238"/>
<path d="M26.8147 39.6437C29.7128 44.0862 31.273 49.4003 31.2795 54.8512C31.313 77.8815 18.1752 81.3488 18.1752 81.3488C18.0812 79.8485 18.1335 78.3416 18.3315 76.8534C18.3315 76.8534 26.7924 67.5039 26.7979 55.7454C26.7979 48.9325 24.8167 43.1658 23.0307 41.2679L21.7917 41.5295C21.7973 40.9455 23.7172 40.0513 26.8147 39.6437Z" fill="#263238"/>
<path d="M10.1669 85.3841C12.4495 85.3111 15.5247 83.5288 17.7403 81.3511C22.3614 76.7888 22.3335 76.6732 25.8384 73.2303C27.2281 71.8616 28.2104 71.0343 28.7406 70.5416C29.7842 69.7552 30.7232 68.8157 31.5311 67.7495C32.1729 66.8005 32.9989 65.5961 33.2054 64.4099C33.4287 63.096 33.9309 61.776 33.7635 60.4012C33.7189 60.0058 33.6184 59.6226 33.5793 59.2272C33.5616 58.6765 33.5858 58.1251 33.6519 57.5787C33.7495 56.6187 33.6833 55.6473 33.4566 54.7136C33.1963 53.8581 32.8402 53.0408 32.3962 52.2804C32.0111 51.593 31.4195 50.7779 31.0009 50.711C31.0734 51.3193 31.2465 52.5967 31.2855 53.7951C30.9875 55.0722 30.3826 56.2396 29.5331 57.1772C28.1211 59.0021 26.9435 59.9328 26.7928 59.5374C26.6421 59.142 27.2002 57.9863 27.1109 56.0458C27.0216 54.1053 26.5528 53.3814 26.0338 53.205C25.1799 52.9252 25.1464 53.9411 24.7166 55.4679C24.2032 57.2928 23.433 58.2478 23.2265 60.9426C23.0423 63.315 23.3716 63.8868 22.1103 64.8905C21.3848 65.4623 18.9458 66.7762 18.9458 66.7762C18.9458 66.7762 19.7216 64.2274 21.0164 59.8659C23.5167 51.4045 24.739 45.6621 21.8257 41.5013C16.8027 41.9272 13.3146 43.9345 11.0598 51.1429C8.75485 58.5398 8.35858 59.4888 5.32808 74.2218C3.13473 84.8792 6.52801 85.5423 10.1669 85.3841Z" fill="#9E6767"/>
<path d="M18.9345 66.806C16.4175 68.2294 9.81512 70.8816 8.88866 74.4462C8.88866 74.4462 8.67101 71.2648 12.8401 68.5822C17.3049 65.6989 19.6657 64.4458 19.6657 64.4458L18.9345 66.806Z" fill="#874C4C"/>
</svg>
