<svg width="32" height="33" viewBox="0 0 32 33" fill="none" xmlns="http://www.w3.org/2000/svg">
<path d="M14 4.5C13.4696 4.5 12.9609 4.71071 12.5858 5.08579C12.2107 5.46086 12 5.96957 12 6.5V6.563L6.937 9.75C6.64977 9.5914 6.32806 9.50557 6 9.5C5.46957 9.5 4.96086 9.71071 4.58579 10.0858C4.21071 10.4609 4 10.9696 4 11.5C4 12.238 4.402 12.871 5 13.219V24.78C4.402 25.128 4 25.76 4 26.499C4 27.0294 4.21071 27.5381 4.58579 27.9132C4.96086 28.2883 5.46957 28.499 6 28.499C6.738 28.499 7.371 28.097 7.719 27.499H20.28C20.628 28.097 21.26 28.499 21.999 28.499C22.5294 28.499 23.0381 28.2883 23.4132 27.9132C23.7883 27.5381 23.999 27.0294 23.999 26.499C23.999 26.101 23.889 25.718 23.686 25.405L26.125 20.5C26.6112 20.468 27.069 20.2601 27.413 19.9151C27.7571 19.5701 27.9637 19.1116 27.9943 18.6254C28.025 18.1391 27.8775 17.6584 27.5795 17.2729C27.2815 16.8875 26.8533 16.6238 26.375 16.531L24.469 10.813C24.785 10.457 25 10.011 25 9.5C25 8.96957 24.7893 8.46086 24.4142 8.08579C24.0391 7.71071 23.5304 7.5 23 7.5C22.488 7.5 22.043 7.715 21.687 8.031L15.97 6.094C15.8742 5.64272 15.6261 5.23808 15.2675 4.94789C14.9088 4.65769 14.4613 4.49957 14 4.5ZM15.313 8L21.031 9.875C21.184 10.68 21.821 11.316 22.625 11.469L24.531 17.156C24.1918 17.5216 24.0023 18.0013 24 18.5C24 18.914 24.129 19.305 24.344 19.625L21.875 24.5C21.5474 24.5221 21.2303 24.625 20.9522 24.7995C20.674 24.974 20.4434 25.2146 20.281 25.5H7.72C7.54669 25.2017 7.29851 24.9539 7 24.781V13.22C7.598 12.872 8 12.24 8 11.501V11.438L13.063 8.251C13.343 8.399 13.66 8.501 14 8.501C14.504 8.501 14.96 8.309 15.313 8Z" fill="#FF5C5C"/>
</svg>
