<svg width="30" height="30" viewBox="0 0 30 30" fill="none" xmlns="http://www.w3.org/2000/svg">
<path fill-rule="evenodd" clip-rule="evenodd" d="M0 15C0 15.5775 0.468 16.047 1.047 16.047H3.885C4.1291 18.6346 5.26824 21.0561 7.1061 22.8939C8.94395 24.7318 11.3654 25.8709 13.953 26.115V28.953C13.953 29.2307 14.0633 29.497 14.2597 29.6933C14.456 29.8897 14.7223 30 15 30C15.2777 30 15.544 29.8897 15.7403 29.6933C15.9367 29.497 16.047 29.2307 16.047 28.953V26.115C18.6346 25.8709 21.0561 24.7318 22.8939 22.8939C24.7318 21.0561 25.8709 18.6346 26.115 16.047H28.953C29.2307 16.047 29.497 15.9367 29.6933 15.7403C29.8897 15.544 30 15.2777 30 15C30 14.7223 29.8897 14.456 29.6933 14.2597C29.497 14.0633 29.2307 13.953 28.953 13.953H26.115C25.8709 11.3654 24.7318 8.94395 22.8939 7.1061C21.0561 5.26824 18.6346 4.1291 16.047 3.885V1.047C16.047 0.769318 15.9367 0.50301 15.7403 0.306659C15.544 0.110309 15.2777 0 15 0C14.7223 0 14.456 0.110309 14.2597 0.306659C14.0633 0.50301 13.953 0.769318 13.953 1.047V3.885C11.3654 4.1291 8.94395 5.26824 7.1061 7.1061C5.26824 8.94395 4.1291 11.3654 3.885 13.953H1.047C0.769318 13.953 0.50301 14.0633 0.306659 14.2597C0.110309 14.456 0 14.7223 0 15ZM9.768 15C9.768 13.6124 10.3192 12.2816 11.3004 11.3004C12.2816 10.3192 13.6124 9.768 15 9.768C16.3876 9.768 17.7184 10.3192 18.6996 11.3004C19.6808 12.2816 20.232 13.6124 20.232 15C20.232 16.3876 19.6808 17.7184 18.6996 18.6996C17.7184 19.6808 16.3876 20.232 15 20.232C13.6124 20.232 12.2816 19.6808 11.3004 18.6996C10.3192 17.7184 9.768 16.3876 9.768 15Z" fill="#03045E"/>
</svg>
