<svg width="260" height="239" viewBox="0 0 260 239" fill="none" xmlns="http://www.w3.org/2000/svg">
<path d="M130 238.857C201.797 238.857 260 235.493 260 231.343C260 227.193 201.797 223.829 130 223.829C58.203 223.829 0 227.193 0 231.343C0 235.493 58.203 238.857 130 238.857Z" fill="#EDEDED"/>
<path d="M160.775 74.1628H160.104V67.0405C160.103 65.6691 159.552 64.3542 158.573 63.3838C157.594 62.4134 156.267 61.8666 154.881 61.8631H141.639C140.075 61.8613 138.575 61.2454 137.469 60.1503C136.363 59.0553 135.741 57.5706 135.739 56.0219V50.5392H136.41V56.0352C136.412 57.4078 136.963 58.7237 137.943 59.6942C138.924 60.6648 140.253 61.2108 141.639 61.2126H154.881C156.445 61.2144 157.944 61.8305 159.049 62.9258C160.154 64.021 160.775 65.5058 160.775 67.0538V74.1628Z" fill="#EDEDED"/>
<path d="M165.536 74.3031H156.819C155.974 74.3031 155.163 74.6351 154.565 75.2262C153.967 75.8173 153.63 76.6192 153.628 77.456V86.085C153.63 86.9218 153.967 87.7238 154.565 88.3149C155.163 88.906 155.974 89.2379 156.819 89.2379H165.536C166.381 89.2379 167.192 88.906 167.79 88.3149C168.388 87.7238 168.725 86.9218 168.727 86.085V77.456C168.725 76.6192 168.388 75.8173 167.79 75.2262C167.192 74.6351 166.381 74.3031 165.536 74.3031Z" fill="#83C1CE"/>
<g opacity="0.4">
<path d="M165.536 74.3011H156.819C155.974 74.3011 155.163 74.633 154.565 75.2241C153.967 75.8152 153.63 76.6171 153.628 77.454V86.083C153.63 86.9198 153.967 87.7217 154.565 88.3128C155.163 88.9039 155.974 89.2359 156.819 89.2359H165.536C166.381 89.2359 167.192 88.9039 167.79 88.3128C168.388 87.7217 168.725 86.9198 168.727 86.083V77.454C168.725 76.6171 168.388 75.8152 167.79 75.2241C167.192 74.633 166.381 74.3011 165.536 74.3011Z" fill="white"/>
</g>
<path d="M161.11 75.7085C159.924 75.7072 158.764 76.0543 157.777 76.7058C156.791 77.3574 156.021 78.2841 155.567 79.3687C155.112 80.4532 154.993 81.6469 155.224 82.7987C155.455 83.9504 156.026 85.0083 156.865 85.8386C157.704 86.6689 158.772 87.2342 159.936 87.463C161.099 87.6918 162.305 87.5737 163.4 87.1237C164.496 86.6738 165.432 85.9121 166.09 84.9353C166.748 83.9584 167.099 82.8102 167.097 81.636C167.094 80.065 166.462 78.5593 165.34 77.4485C164.218 76.3376 162.697 75.712 161.11 75.7085ZM160.158 76.3723C159.575 76.947 159.103 77.6217 158.763 78.3636H156.866C157.68 77.3183 158.859 76.6107 160.171 76.3789L160.158 76.3723ZM156.457 78.9211H158.509C158.212 79.6823 158.034 80.4835 157.979 81.2974V81.4368H155.733C155.763 80.5544 156.012 79.6929 156.457 78.9278V78.9211ZM156.578 84.53C156.086 83.7773 155.794 82.9146 155.726 82.0209H157.992C158.079 82.8873 158.306 83.7344 158.663 84.53H156.578ZM157.02 85.1141H158.945C159.312 85.8005 159.802 86.4146 160.393 86.9262C159.082 86.7563 157.881 86.1134 157.02 85.1208V85.1141ZM160.815 86.5147C160.346 86.114 159.945 85.6411 159.628 85.1141H160.842L160.815 86.5147ZM160.815 84.5234H159.307C158.923 83.7341 158.681 82.8853 158.589 82.0143H160.842L160.815 84.5234ZM160.815 81.4302H158.569C158.608 80.5643 158.803 79.7123 159.146 78.9145H160.842L160.815 81.4302ZM160.815 78.3304H159.421C159.765 77.6599 160.239 77.0624 160.815 76.5714V78.3304ZM166.507 81.4302H164.255V81.2908C164.203 80.4764 164.024 79.6748 163.725 78.9145H165.777C166.231 79.6835 166.482 80.5531 166.507 81.4435V81.4302ZM165.354 78.3304H163.464C163.119 77.5896 162.645 76.9153 162.062 76.3391C163.373 76.5791 164.547 77.2937 165.354 78.3437V78.3304ZM161.405 76.578C161.983 77.0651 162.457 77.6607 162.8 78.3304H161.405V76.578ZM161.405 78.9145H163.075C163.418 79.7121 163.616 80.564 163.658 81.4302H161.405V78.9145ZM161.405 82.0143H163.631C163.543 82.8859 163.3 83.7352 162.914 84.5234H161.405V82.0143ZM161.405 86.508V85.1208H162.592C162.279 85.6505 161.878 86.124 161.405 86.5213V86.508ZM161.828 86.9196C162.418 86.408 162.909 85.7938 163.276 85.1075H165.2C164.342 86.1075 163.141 86.7577 161.828 86.9328V86.9196ZM165.643 84.5234H163.564C163.921 83.7278 164.148 82.8807 164.235 82.0143H166.501C166.436 82.9136 166.14 83.7816 165.643 84.5366V84.5234Z" fill="white"/>
<path d="M187.829 63.1515H187.159V56.0292C187.159 54.6579 186.609 53.3427 185.629 52.373C184.65 51.4033 183.321 50.8585 181.936 50.8585H150.336V50.1947H181.936C183.498 50.1965 184.996 50.8117 186.101 51.9055C187.206 52.9993 187.828 54.4824 187.829 56.0292V63.1515Z" fill="#EDEDED"/>
<path d="M189.995 57.9879H181.278C180.433 57.9879 179.622 58.3199 179.024 58.911C178.426 59.5021 178.089 60.304 178.087 61.1408V69.7698C178.089 70.6066 178.426 71.4086 179.024 71.9997C179.622 72.5908 180.433 72.9227 181.278 72.9227H189.995C190.84 72.9227 191.651 72.5908 192.249 71.9997C192.847 71.4086 193.184 70.6066 193.186 69.7698V61.1607C193.188 60.7447 193.107 60.3324 192.947 59.9476C192.787 59.5627 192.553 59.2128 192.256 58.918C191.959 58.6232 191.607 58.3893 191.219 58.2297C190.831 58.0701 190.415 57.9879 189.995 57.9879Z" fill="#83C1CE"/>
<g opacity="0.4">
<path d="M189.995 57.9879H181.278C180.433 57.9879 179.622 58.3199 179.024 58.911C178.426 59.5021 178.089 60.304 178.087 61.1408V69.7698C178.089 70.6066 178.426 71.4086 179.024 71.9997C179.622 72.5908 180.433 72.9227 181.278 72.9227H189.995C190.84 72.9227 191.651 72.5908 192.249 71.9997C192.847 71.4086 193.184 70.6066 193.186 69.7698V61.1607C193.188 60.7447 193.107 60.3324 192.947 59.9476C192.787 59.5627 192.553 59.2128 192.256 58.918C191.959 58.6232 191.607 58.3893 191.219 58.2297C190.831 58.0701 190.415 57.9879 189.995 57.9879Z" fill="white"/>
</g>
<path opacity="0.9" d="M186.656 61.3324C186.165 60.8453 185.543 60.5071 184.864 60.3571C184.185 60.2072 183.477 60.2518 182.823 60.4857C182.169 60.7197 181.596 61.1332 181.171 61.678C180.745 62.2228 180.485 62.8763 180.422 63.562C180.358 64.2476 180.493 64.9371 180.81 65.5496C181.128 66.1622 181.615 66.6724 182.215 67.0207C182.815 67.369 183.503 67.5409 184.198 67.5162C184.893 67.4916 185.567 67.2714 186.14 66.8815C186.167 67.0477 186.247 67.2011 186.368 67.3196L188.641 69.5697C188.717 69.6451 188.808 69.705 188.907 69.7458C189.007 69.7866 189.113 69.8076 189.221 69.8076C189.329 69.8076 189.435 69.7866 189.535 69.7458C189.634 69.705 189.725 69.6451 189.801 69.5697C189.877 69.4943 189.937 69.4048 189.979 69.3063C190.02 69.2078 190.041 69.1022 190.041 68.9956C190.041 68.8889 190.02 68.7834 189.979 68.6849C189.937 68.5863 189.877 68.4968 189.801 68.4214L187.528 66.1712C187.406 66.0504 187.249 65.9712 187.079 65.9456C187.563 65.2487 187.786 64.406 187.709 63.5634C187.632 62.7209 187.26 61.9316 186.656 61.3324ZM185.879 65.6867C185.52 66.0428 185.062 66.2856 184.564 66.3841C184.066 66.4827 183.549 66.4327 183.079 66.2405C182.61 66.0483 182.208 65.7224 181.926 65.3042C181.643 64.886 181.493 64.3943 181.493 63.8912C181.493 63.3881 181.643 62.8964 181.926 62.4782C182.208 62.06 182.61 61.7341 183.079 61.5419C183.549 61.3497 184.066 61.2997 184.564 61.3982C185.062 61.4968 185.52 61.7396 185.879 62.0957C186.117 62.3312 186.307 62.6111 186.436 62.9192C186.565 63.2273 186.631 63.5576 186.631 63.8912C186.631 64.2248 186.565 64.5551 186.436 64.8632C186.307 65.1713 186.117 65.4511 185.879 65.6867Z" fill="white"/>
<path d="M190.029 38.8834H149.585V39.5471H190.029V38.8834Z" fill="#EDEDED"/>
<path d="M196.425 27.4914H187.742C187.324 27.4914 186.909 27.5732 186.522 27.7321C186.135 27.8909 185.784 28.1238 185.488 28.4172C185.192 28.7107 184.958 29.0591 184.798 29.4424C184.638 29.8257 184.557 30.2364 184.558 30.651V39.2534C184.557 39.668 184.638 40.0787 184.798 40.462C184.958 40.8453 185.192 41.1937 185.488 41.4872C185.784 41.7806 186.135 42.0135 186.522 42.1723C186.909 42.3312 187.324 42.413 187.742 42.413H196.425C197.271 42.413 198.083 42.0801 198.682 41.4876C199.28 40.895 199.617 40.0914 199.617 39.2534V30.6244C199.609 29.7911 199.27 28.9942 198.672 28.4074C198.075 27.8206 197.267 27.4914 196.425 27.4914Z" fill="#83C1CE"/>
<g opacity="0.4">
<path d="M196.425 27.4917H187.742C187.324 27.4917 186.909 27.5735 186.522 27.7323C186.135 27.8912 185.784 28.124 185.488 28.4175C185.192 28.711 184.958 29.0593 184.798 29.4426C184.638 29.8259 184.557 30.2366 184.558 30.6512V39.2537C184.557 39.6683 184.638 40.079 184.798 40.4623C184.958 40.8456 185.192 41.194 185.488 41.4874C185.784 41.7809 186.135 42.0138 186.522 42.1726C186.909 42.3315 187.324 42.4132 187.742 42.4132H196.425C197.271 42.4132 198.083 42.0804 198.682 41.4878C199.28 40.8953 199.617 40.0917 199.617 39.2537V30.6247C199.609 29.7913 199.27 28.9945 198.672 28.4077C198.075 27.8209 197.267 27.4917 196.425 27.4917Z" fill="white"/>
</g>
<path d="M161.512 30.0172H148.357V29.3534H161.512C162.897 29.3534 164.226 28.8086 165.205 27.8389C166.185 26.8692 166.735 25.554 166.735 24.1826V17.0604H167.406V24.1826C167.404 25.7295 166.782 27.2125 165.678 28.3063C164.573 29.4001 163.075 30.0154 161.512 30.0172Z" fill="#EDEDED"/>
<path d="M171.71 5.69012H162.484C160.855 5.69012 159.534 6.99772 159.534 8.61071V17.7442C159.534 19.3572 160.855 20.6648 162.484 20.6648H171.71C173.339 20.6648 174.66 19.3572 174.66 17.7442V8.61071C174.66 6.99772 173.339 5.69012 171.71 5.69012Z" fill="#83C1CE"/>
<g opacity="0.4">
<path d="M171.71 5.69028H162.484C160.855 5.69028 159.534 6.99787 159.534 8.61087V17.7443C159.534 19.3573 160.855 20.6649 162.484 20.6649H171.71C173.339 20.6649 174.66 19.3573 174.66 17.7443V8.61087C174.66 6.99787 173.339 5.69028 171.71 5.69028Z" fill="white"/>
</g>
<path d="M131.106 13.0103H130.436V26.6507H131.106V13.0103Z" fill="#EDEDED"/>
<path d="M135.115 6.10352e-05H126.433C125.586 6.10352e-05 124.774 0.332941 124.176 0.925471C123.577 1.518 123.241 2.32164 123.241 3.15961V11.7554C123.241 12.5934 123.577 13.397 124.176 13.9896C124.774 14.5821 125.586 14.915 126.433 14.915H135.115C135.534 14.915 135.949 14.8332 136.336 14.6743C136.722 14.5155 137.074 14.2826 137.37 13.9892C137.666 13.6957 137.9 13.3473 138.06 12.964C138.219 12.5807 138.301 12.17 138.3 11.7554V3.15961C138.301 2.745 138.219 2.33429 138.06 1.951C137.9 1.5677 137.666 1.21935 137.37 0.925871C137.074 0.632393 136.722 0.399558 136.336 0.240695C135.949 0.0818315 135.534 6.01164e-05 135.115 6.10352e-05Z" fill="#83C1CE"/>
<g opacity="0.4">
<path d="M135.115 0H126.433C125.586 0 124.774 0.33288 124.176 0.925409C123.577 1.51794 123.241 2.32158 123.241 3.15954V11.7554C123.241 12.5933 123.577 13.397 124.176 13.9895C124.774 14.582 125.586 14.9149 126.433 14.9149H135.115C135.534 14.9149 135.949 14.8331 136.336 14.6743C136.722 14.5154 137.074 14.2826 137.37 13.9891C137.666 13.6956 137.9 13.3473 138.06 12.964C138.219 12.5807 138.301 12.17 138.3 11.7554V3.15954C138.301 2.74494 138.219 2.33423 138.06 1.95094C137.9 1.56764 137.666 1.21929 137.37 0.92581C137.074 0.632332 136.722 0.399497 136.336 0.240634C135.949 0.0817705 135.534 -9.18785e-07 135.115 0Z" fill="white"/>
</g>
<path d="M101.699 74.1628H101.028V67.0405C101.03 65.4919 101.652 64.0072 102.758 62.9121C103.865 61.8171 105.364 61.2011 106.929 61.1993H120.164C121.55 61.1976 122.879 60.6515 123.86 59.681C124.84 58.7104 125.392 57.3945 125.393 56.0219V50.5392H126.064V56.0352C126.062 57.5838 125.44 59.0685 124.334 60.1636C123.228 61.2586 121.728 61.8746 120.164 61.8764H106.929C105.542 61.8781 104.213 62.4242 103.233 63.3947C102.252 64.3653 101.701 65.6812 101.699 67.0538V74.1628Z" fill="#EDEDED"/>
<path d="M105.373 73.3259H96.6573C95.8109 73.3259 94.9991 73.6587 94.4006 74.2513C93.8021 74.8438 93.4658 75.6474 93.4658 76.4854V85.0547C93.4658 85.4693 93.5484 85.8798 93.7089 86.2628C93.8694 86.6457 94.1045 86.9936 94.401 87.2865C94.6974 87.5793 95.0493 87.8114 95.4365 87.9695C95.8236 88.1275 96.2385 88.2085 96.6573 88.2076H105.373C106.216 88.2041 107.022 87.8703 107.617 87.2794C108.211 86.6885 108.545 85.8886 108.545 85.0547V76.4854C108.545 75.6509 108.211 74.8503 107.617 74.2583C107.023 73.6663 106.216 73.3311 105.373 73.3259Z" fill="#83C1CE"/>
<g opacity="0.4">
<path d="M105.373 73.3265H96.6573C95.8109 73.3265 94.9991 73.6594 94.4006 74.2519C93.8021 74.8444 93.4658 75.6481 93.4658 76.486V85.0553C93.4658 85.4699 93.5484 85.8805 93.7089 86.2634C93.8694 86.6464 94.1045 86.9943 94.401 87.2871C94.6974 87.58 95.0493 87.8121 95.4365 87.9701C95.8236 88.1282 96.2385 88.2091 96.6573 88.2082H105.373C106.216 88.2047 107.022 87.871 107.617 87.2801C108.211 86.6892 108.545 85.8892 108.545 85.0553V76.486C108.545 75.6515 108.211 74.8509 107.617 74.2589C107.023 73.667 106.216 73.3318 105.373 73.3265Z" fill="white"/>
</g>
<path d="M106.433 84.3515C106.433 84.5419 106.376 84.7279 106.269 84.8862C106.162 85.0445 106.01 85.1679 105.833 85.2407C105.655 85.3136 105.459 85.3326 105.271 85.2955C105.082 85.2583 104.909 85.1667 104.773 85.0321C104.637 84.8975 104.544 84.726 104.507 84.5393C104.469 84.3526 104.489 84.1591 104.562 83.9832C104.636 83.8073 104.76 83.657 104.92 83.5512C105.08 83.4455 105.268 83.389 105.46 83.389C105.718 83.389 105.966 83.4904 106.148 83.6709C106.33 83.8514 106.433 84.0962 106.433 84.3515Z" fill="white"/>
<path d="M102.128 84.3515C102.128 84.5419 102.071 84.7279 101.964 84.8862C101.857 85.0445 101.705 85.1679 101.528 85.2407C101.35 85.3136 101.155 85.3326 100.966 85.2955C100.778 85.2583 100.604 85.1667 100.468 85.0321C100.332 84.8975 100.24 84.726 100.202 84.5393C100.165 84.3526 100.184 84.1591 100.258 83.9832C100.331 83.8073 100.456 83.657 100.616 83.5512C100.776 83.4455 100.964 83.389 101.156 83.389C101.414 83.389 101.661 83.4904 101.843 83.6709C102.026 83.8514 102.128 84.0962 102.128 84.3515Z" fill="white"/>
<path d="M97.8171 84.3515C97.8185 84.5435 97.7622 84.7315 97.6554 84.8917C97.5487 85.052 97.3963 85.1772 97.2175 85.2516C97.0388 85.3259 96.8418 85.3461 96.6514 85.3094C96.4611 85.2728 96.286 85.181 96.1485 85.0458C96.0109 84.9105 95.917 84.7378 95.8787 84.5497C95.8404 84.3615 95.8594 84.1663 95.9332 83.9889C96.0071 83.8114 96.1326 83.6596 96.2937 83.5529C96.4548 83.4461 96.6444 83.3891 96.8382 83.3891C96.9665 83.3882 97.0936 83.4124 97.2124 83.4604C97.3311 83.5084 97.439 83.5791 97.53 83.6686C97.621 83.7581 97.6932 83.8645 97.7425 83.9817C97.7918 84.0989 97.8171 84.2246 97.8171 84.3515Z" fill="white"/>
<path d="M105.681 86.2771H96.5831C96.0817 86.2771 95.6008 86.0798 95.2462 85.7288C94.8916 85.3778 94.6924 84.9017 94.6924 84.4052V84.299C94.6924 83.8026 94.8916 83.3265 95.2462 82.9754C95.6008 82.6244 96.0817 82.4272 96.5831 82.4272H105.681C106.183 82.4272 106.664 82.6244 107.018 82.9754C107.373 83.3265 107.572 83.8026 107.572 84.299V84.3919C107.574 84.6389 107.526 84.8837 107.432 85.1123C107.338 85.341 107.199 85.5489 107.023 85.7241C106.847 85.8994 106.638 86.0384 106.408 86.1333C106.178 86.2282 105.931 86.2771 105.681 86.2771ZM96.5831 83.0246C96.2417 83.0246 95.9143 83.1588 95.6729 83.3979C95.4314 83.6369 95.2958 83.961 95.2958 84.299V84.3919C95.2958 84.7299 95.4314 85.0541 95.6729 85.2931C95.9143 85.5321 96.2417 85.6664 96.5831 85.6664H105.681C106.023 85.6664 106.35 85.5321 106.592 85.2931C106.833 85.0541 106.969 84.7299 106.969 84.3919V84.2857C106.969 83.9477 106.833 83.6236 106.592 83.3846C106.35 83.1456 106.023 83.0113 105.681 83.0113L96.5831 83.0246Z" fill="white"/>
<path d="M105.595 83.0035C105.435 83.0035 105.281 82.9405 105.168 82.8285C105.055 82.7165 104.991 82.5645 104.991 82.4061V80.5143L101.17 76.5649L98.9771 77.2751C98.8264 77.3196 98.6641 77.3041 98.5248 77.2319C98.3854 77.1597 98.2801 77.0365 98.2311 76.8886C98.1822 76.7406 98.1935 76.5796 98.2627 76.4398C98.3319 76.3 98.4535 76.1925 98.6016 76.1401L101.149 75.3104C101.257 75.2743 101.373 75.2695 101.484 75.2966C101.594 75.3236 101.695 75.3814 101.773 75.4631L106.057 79.8572C106.164 79.968 106.224 80.1153 106.225 80.2687V82.3994C106.226 82.4807 106.21 82.5614 106.179 82.6364C106.147 82.7115 106.1 82.7793 106.041 82.8359C105.982 82.8924 105.912 82.9365 105.835 82.9653C105.759 82.9941 105.677 83.0071 105.595 83.0035Z" fill="white"/>
<path d="M98.5947 78.4965C98.5147 78.4965 98.4379 78.465 98.3813 78.409C98.3247 78.353 98.293 78.277 98.293 78.1978V76.7109C98.293 76.6317 98.3247 76.5557 98.3813 76.4997C98.4379 76.4437 98.5147 76.4122 98.5947 76.4122C98.6747 76.4122 98.7514 76.4437 98.808 76.4997C98.8646 76.5557 98.8964 76.6317 98.8964 76.7109V78.1978C98.8964 78.277 98.8646 78.353 98.808 78.409C98.7514 78.465 98.6747 78.4965 98.5947 78.4965Z" fill="white"/>
<path d="M98.1251 79.6203C98.0853 79.621 98.0457 79.6137 98.0089 79.5989C97.972 79.5841 97.9385 79.562 97.9105 79.534C97.7322 79.358 97.6311 79.1196 97.6289 78.8703C97.6491 78.6297 97.76 78.4054 97.9394 78.2419C98.1189 78.0784 98.3539 77.9877 98.5977 77.9877C98.8416 77.9877 99.0766 78.0784 99.2561 78.2419C99.4355 78.4054 99.5463 78.6297 99.5666 78.8703C99.5682 79.1152 99.4774 79.352 99.3118 79.534C99.2849 79.5632 99.2525 79.5869 99.2164 79.6037C99.1804 79.6205 99.1413 79.6301 99.1014 79.632C99.0209 79.6357 98.9423 79.6077 98.8827 79.554C98.8231 79.5003 98.7875 79.4253 98.7838 79.3457C98.78 79.266 98.8083 79.1881 98.8626 79.1292C98.8952 79.097 98.9209 79.0587 98.9382 79.0165C98.9554 78.9743 98.9639 78.9291 98.9632 78.8836C98.9614 78.7879 98.9218 78.6967 98.8528 78.6297C98.7838 78.5626 98.691 78.5251 98.5944 78.5251C98.4984 78.5251 98.4063 78.5629 98.3384 78.6301C98.2705 78.6973 98.2323 78.7885 98.2323 78.8836C98.2334 78.9802 98.2718 79.0729 98.3396 79.1424C98.3949 79.1983 98.4259 79.2733 98.4259 79.3515C98.4259 79.4297 98.3949 79.5048 98.3396 79.5606C98.2787 79.6075 98.2017 79.629 98.1251 79.6203Z" fill="white"/>
<path d="M101.538 75.9091C101.54 75.9566 101.527 76.0034 101.501 76.0436C101.475 76.0838 101.438 76.1154 101.394 76.1345C101.35 76.1536 101.301 76.1593 101.254 76.1509C101.207 76.1424 101.163 76.1202 101.129 76.087C101.094 76.0539 101.071 76.0114 101.061 75.9648C101.051 75.9183 101.055 75.8699 101.073 75.8259C101.091 75.7818 101.122 75.7441 101.162 75.7175C101.202 75.691 101.249 75.6768 101.297 75.6768C101.36 75.6767 101.42 75.701 101.465 75.7444C101.51 75.7878 101.537 75.8469 101.538 75.9091Z" fill="#83C1CE"/>
<path d="M105.789 80.303C105.789 80.3502 105.775 80.3964 105.749 80.4357C105.722 80.475 105.684 80.5057 105.64 80.5238C105.596 80.5418 105.548 80.5466 105.501 80.5374C105.454 80.5281 105.411 80.5054 105.377 80.472C105.344 80.4385 105.321 80.396 105.311 80.3496C105.302 80.3033 105.307 80.2552 105.325 80.2115C105.343 80.1679 105.374 80.1306 105.414 80.1043C105.454 80.078 105.5 80.064 105.548 80.064C105.58 80.064 105.611 80.0702 105.64 80.0822C105.67 80.0942 105.696 80.1118 105.719 80.134C105.741 80.1562 105.759 80.1826 105.771 80.2115C105.783 80.2405 105.789 80.2716 105.789 80.303Z" fill="#83C1CE"/>
<path opacity="0.4" d="M99.514 80.2832H97.6836V82.0953H99.514V80.2832Z" fill="white"/>
<path d="M107.203 30.0153H94.0281C92.4645 30.0153 90.9647 29.4008 89.8584 28.3068C88.7521 27.2128 88.1297 25.7288 88.1279 24.1808V17.0585H88.7984V24.1808C88.8002 25.5528 89.352 26.868 90.3325 27.8375C91.3131 28.807 92.6423 29.3516 94.0281 29.3516H107.203V30.0153Z" fill="#EDEDED"/>
<path d="M94.0618 5.00497H85.3858C83.6232 5.00497 82.1943 6.41955 82.1943 8.16452V16.7537C82.1943 18.4987 83.6232 19.9132 85.3858 19.9132H94.0618C95.8244 19.9132 97.2532 18.4987 97.2532 16.7537V8.16452C97.2532 6.41955 95.8244 5.00497 94.0618 5.00497Z" fill="#83C1CE"/>
<path opacity="0.4" d="M94.0618 5.00497H85.3858C83.6232 5.00497 82.1943 6.41955 82.1943 8.16452V16.7537C82.1943 18.4987 83.6232 19.9132 85.3858 19.9132H94.0618C95.8244 19.9132 97.2532 18.4987 97.2532 16.7537V8.16452C97.2532 6.41955 95.8244 5.00497 94.0618 5.00497Z" fill="white"/>
<path d="M89.7233 8.05762C91.0643 8.05762 91.7348 9.10637 91.7348 10.4074C91.7348 11.7084 91.0308 12.7571 89.7233 12.7571C88.4159 12.7571 87.7119 11.7017 87.7119 10.4074C87.7119 9.11301 88.4293 8.05762 89.7233 8.05762Z" fill="white"/>
<path d="M94.9673 16.8658H84.481C84.3979 16.8643 84.3186 16.831 84.2598 16.7729L84.9302 14.9542C85.1418 14.3834 85.5254 13.8908 86.029 13.5429C86.5327 13.1951 87.1321 13.0088 87.7462 13.0093H91.7021C92.3164 13.0079 92.9163 13.1938 93.4201 13.5417C93.9239 13.8897 94.3073 14.3829 94.5181 14.9542L95.1885 16.7729C95.1297 16.831 95.0504 16.8643 94.9673 16.8658Z" fill="white"/>
<path d="M76.7496 63.1515H76.0791V56.0292C76.0809 54.4812 76.7033 52.9972 77.8096 51.9032C78.9159 50.8092 80.4157 50.1947 81.9794 50.1947H113.573V50.8585H81.9794C80.5935 50.8585 79.2643 51.403 78.2837 52.3726C77.3031 53.3421 76.7514 54.6573 76.7496 56.0292V63.1515Z" fill="#EDEDED"/>
<path d="M81.0139 57.8875H72.3379C70.5753 57.8875 69.1465 59.3021 69.1465 61.0471V69.6363C69.1465 71.3812 70.5753 72.7958 72.3379 72.7958H81.0139C82.7765 72.7958 84.2054 71.3812 84.2054 69.6363V61.0471C84.2054 59.3021 82.7765 57.8875 81.0139 57.8875Z" fill="#83C1CE"/>
<path opacity="0.4" d="M81.0139 57.8875H72.3379C70.5753 57.8875 69.1465 59.3021 69.1465 61.0471V69.6363C69.1465 71.3812 70.5753 72.7958 72.3379 72.7958H81.0139C82.7765 72.7958 84.2054 71.3812 84.2054 69.6363V61.0471C84.2054 59.3021 82.7765 57.8875 81.0139 57.8875Z" fill="white"/>
<path opacity="0.6" d="M73.5786 66.7031H71.708V70.2675H73.5786V66.7031Z" fill="white"/>
<path opacity="0.6" d="M78.8823 65.5015H77.0117V70.2674H78.8823V65.5015Z" fill="white"/>
<path d="M76.1324 64.2999H74.2617V70.2672H76.1324V64.2999Z" fill="white"/>
<path d="M81.5435 63.0984H79.6729V70.2671H81.5435V63.0984Z" fill="white"/>
<path d="M116.101 38.8825H75.6572V39.5463H116.101V38.8825Z" fill="#EDEDED"/>
<path d="M76.9513 27.3072H68.2686C67.4222 27.3072 66.6104 27.6401 66.0119 28.2326C65.4134 28.8252 65.0771 29.6288 65.0771 30.4668V39.0626C65.0771 39.9005 65.4134 40.7042 66.0119 41.2967C66.6104 41.8892 67.4222 42.2221 68.2686 42.2221H76.9513C77.3701 42.2221 77.7848 42.1404 78.1716 41.9815C78.5584 41.8226 78.9098 41.5898 79.2056 41.2963C79.5014 41.0028 79.7359 40.6545 79.8956 40.2712C80.0552 39.8879 80.1369 39.4772 80.1361 39.0626V30.4867C80.1396 30.0704 80.0598 29.6576 79.9014 29.272C79.7429 28.8864 79.5089 28.5356 79.2128 28.2401C78.9167 27.9445 78.5644 27.7098 78.1763 27.5497C77.7881 27.3896 77.3718 27.3072 76.9513 27.3072Z" fill="#83C1CE"/>
<g opacity="0.4">
<path d="M76.9513 27.3078H68.2686C67.4222 27.3078 66.6104 27.6407 66.0119 28.2332C65.4134 28.8258 65.0771 29.6294 65.0771 30.4674V39.0632C65.0771 39.9012 65.4134 40.7048 66.0119 41.2973C66.6104 41.8899 67.4222 42.2227 68.2686 42.2227H76.9513C77.3701 42.2227 77.7848 42.141 78.1716 41.9821C78.5584 41.8232 78.9098 41.5904 79.2056 41.2969C79.5014 41.0034 79.7359 40.6551 79.8956 40.2718C80.0552 39.8885 80.1369 39.4778 80.1361 39.0632V30.4873C80.1396 30.071 80.0598 29.6582 79.9014 29.2726C79.7429 28.887 79.5089 28.5363 79.2128 28.2407C78.9167 27.9451 78.5644 27.7104 78.1763 27.5503C77.7881 27.3902 77.3718 27.3078 76.9513 27.3078Z" fill="white"/>
</g>
<path d="M72.9414 29.2998V30.6804C73.8132 30.751 74.6408 31.0899 75.3082 31.6495L76.2938 30.6738C75.3633 29.857 74.1828 29.3731 72.9414 29.2998Z" fill="#83C1CE"/>
<path opacity="0.6" d="M72.9414 29.2998V30.6804C73.8132 30.751 74.6408 31.0899 75.3082 31.6495L76.2938 30.6738C75.3633 29.857 74.1828 29.3731 72.9414 29.2998Z" fill="white"/>
<path d="M72.2651 38.9036C71.2776 38.8261 70.3504 38.4026 69.6499 37.7092C68.9495 37.0157 68.5217 36.0977 68.4434 35.1201H67.0488C67.1315 36.463 67.7076 37.7295 68.6685 38.6808C69.6294 39.6321 70.9087 40.2025 72.2651 40.2843V38.9036Z" fill="#83C1CE"/>
<path opacity="0.8" d="M72.2651 38.9036C71.2776 38.8261 70.3504 38.4026 69.6499 37.7092C68.9495 37.0157 68.5217 36.0977 68.4434 35.1201H67.0488C67.1315 36.463 67.7076 37.7295 68.6685 38.6808C69.6294 39.6321 70.9087 40.2025 72.2651 40.2843V38.9036Z" fill="white"/>
<path d="M68.4434 34.4506C68.523 33.4735 68.9512 32.5562 69.6514 31.863C70.3516 31.1698 71.2781 30.7459 72.2651 30.6671V29.2998C70.9087 29.3816 69.6294 29.9519 68.6685 30.9032C67.7076 31.8545 67.1315 33.121 67.0488 34.4639L68.4434 34.4506Z" fill="#83C1CE"/>
<path opacity="0.7" d="M68.4434 34.4506C68.523 33.4735 68.9512 32.5562 69.6514 31.863C70.3516 31.1698 71.2781 30.7459 72.2651 30.6671V29.2998C70.9087 29.3816 69.6294 29.9519 68.6685 30.9032C67.7076 31.8545 67.1315 33.121 67.0488 34.4639L68.4434 34.4506Z" fill="white"/>
<path d="M76.7698 31.1313L75.7842 32.1071C76.2811 32.6868 76.607 33.3909 76.726 34.142C76.8449 34.8931 76.7524 35.6622 76.4586 36.3647C76.1648 37.0671 75.6811 37.6758 75.0606 38.1238C74.4401 38.5718 73.7068 38.8418 72.9414 38.9041V40.2847C73.983 40.2223 74.9859 39.8712 75.8356 39.2715C76.6853 38.6718 77.3475 37.8476 77.7468 36.8932C78.146 35.9387 78.2661 34.8923 78.0933 33.8735C77.9206 32.8547 77.462 31.9044 76.7698 31.1313Z" fill="white"/>
<path d="M108.269 26.7301L110.153 26.6504L112.801 55.5974H110.79C109.791 55.5045 109.556 54.3894 109.281 52.2786L107.431 32.0668C107.002 27.3076 107.826 26.7301 108.269 26.7301Z" fill="#83C1CE"/>
<path opacity="0.3" d="M108.269 26.7301L110.153 26.6504L112.801 55.5974H110.79C109.791 55.5045 109.556 54.3894 109.281 52.2786L107.431 32.0668C107.002 27.3076 107.826 26.7301 108.269 26.7301Z" fill="black"/>
<path d="M111.306 55.5974H150.939C151.048 55.59 151.154 55.5597 151.251 55.5085C151.347 55.4572 151.431 55.3862 151.498 55.3002C151.565 55.2142 151.612 55.1151 151.637 55.0095C151.662 54.904 151.664 54.7944 151.643 54.6881L149.168 27.5531C149.156 27.3232 149.061 27.1052 148.9 26.9394C148.738 26.7735 148.522 26.6709 148.29 26.6504H108.624C108.515 26.657 108.409 26.6865 108.312 26.737C108.215 26.7875 108.131 26.8577 108.063 26.9431C107.996 27.0284 107.948 27.127 107.922 27.2322C107.896 27.3374 107.893 27.4468 107.914 27.5531L110.394 54.6881C110.404 54.925 110.503 55.1497 110.672 55.318C110.841 55.4863 111.067 55.586 111.306 55.5974Z" fill="#83C1CE"/>
<path d="M112.795 52.1651H148.786L146.788 29.577H110.797L112.795 52.1651Z" fill="#83C1CE"/>
<path d="M113.318 53.9371H148.78C149.013 53.9414 149.245 53.8963 149.459 53.8048C149.674 53.7134 149.866 53.5777 150.024 53.4068C150.181 53.236 150.3 53.0339 150.372 52.814C150.444 52.5941 150.468 52.3615 150.442 52.1317L148.465 29.683C148.416 29.1889 148.183 28.7305 147.811 28.3978C147.439 28.065 146.955 27.8818 146.453 27.8842H110.991C110.758 27.879 110.526 27.9232 110.312 28.0139C110.097 28.1045 109.905 28.2396 109.747 28.41C109.59 28.5803 109.471 28.782 109.399 29.0016C109.327 29.2212 109.303 29.4535 109.328 29.683L111.306 52.1317C111.353 52.627 111.586 53.0869 111.958 53.4211C112.33 53.7552 112.815 53.9393 113.318 53.9371Z" fill="#263238"/>
<path d="M112.795 52.1651H148.786L146.788 29.577H110.797L112.795 52.1651Z" fill="#83C1CE"/>
<path opacity="0.4" d="M112.95 52.0371H148.942L146.944 29.449H110.952L112.95 52.0371Z" fill="white"/>
<path opacity="0.1" d="M123.147 27.8909L116.12 53.924H118.487L125.44 27.8909H123.147Z" fill="white"/>
<path opacity="0.1" d="M126.801 27.8909L119.768 53.924H124.461L131.414 27.8909H126.801Z" fill="white"/>
<path d="M110.797 29.577L110.978 31.6015H146.969L146.788 29.577H110.797Z" fill="#83C1CE"/>
<path d="M112.453 30.4802C112.459 30.532 112.453 30.5843 112.437 30.6338C112.42 30.6833 112.393 30.7287 112.358 30.7671C112.322 30.8054 112.279 30.8358 112.231 30.8561C112.182 30.8765 112.13 30.8864 112.077 30.8851C111.965 30.8841 111.858 30.8422 111.775 30.7676C111.692 30.6929 111.64 30.5906 111.628 30.4802C111.622 30.4282 111.628 30.3755 111.644 30.3257C111.661 30.2759 111.687 30.2301 111.723 30.1912C111.758 30.1524 111.802 30.1214 111.85 30.1003C111.898 30.0792 111.951 30.0684 112.004 30.0687C112.116 30.0714 112.224 30.1146 112.307 30.1904C112.39 30.2662 112.441 30.3692 112.453 30.4802Z" fill="white"/>
<path d="M113.539 30.4802C113.545 30.532 113.539 30.5843 113.523 30.6338C113.506 30.6833 113.479 30.7287 113.444 30.7671C113.408 30.8054 113.365 30.8358 113.316 30.8561C113.268 30.8765 113.216 30.8864 113.163 30.8851C113.051 30.8841 112.944 30.8422 112.861 30.7676C112.778 30.6929 112.726 30.5906 112.714 30.4802C112.708 30.4282 112.714 30.3755 112.73 30.3257C112.747 30.2759 112.773 30.2301 112.809 30.1912C112.844 30.1524 112.888 30.1214 112.936 30.1003C112.984 30.0792 113.037 30.0684 113.09 30.0687C113.202 30.0714 113.31 30.1146 113.393 30.1904C113.475 30.2662 113.527 30.3692 113.539 30.4802Z" fill="white"/>
<path d="M114.659 30.4802C114.665 30.532 114.659 30.5843 114.643 30.6338C114.626 30.6833 114.6 30.7287 114.564 30.7671C114.528 30.8054 114.485 30.8358 114.437 30.8561C114.388 30.8765 114.336 30.8864 114.283 30.8851C114.171 30.8841 114.064 30.8422 113.981 30.7676C113.898 30.6929 113.846 30.5906 113.834 30.4802C113.829 30.4282 113.834 30.3755 113.85 30.3257C113.867 30.2759 113.893 30.2301 113.929 30.1912C113.964 30.1524 114.008 30.1214 114.056 30.1003C114.104 30.0792 114.157 30.0684 114.21 30.0687C114.322 30.0714 114.43 30.1146 114.513 30.1904C114.596 30.2662 114.647 30.3692 114.659 30.4802Z" fill="white"/>
<path d="M152.152 55.6773H111.756C111.282 55.6773 110.897 56.0577 110.897 56.527V57.0381C110.897 57.5073 111.282 57.8877 111.756 57.8877H152.152C152.626 57.8877 153.011 57.5073 153.011 57.0381V56.527C153.011 56.0577 152.626 55.6773 152.152 55.6773Z" fill="#83C1CE"/>
<path d="M126.922 55.6773H168.686V56.1818C168.686 56.6342 168.505 57.0681 168.182 57.388C167.858 57.708 167.42 57.8877 166.963 57.8877H128.645C128.188 57.8877 127.75 57.708 127.427 57.388C127.103 57.0681 126.922 56.6342 126.922 56.1818V55.6773Z" fill="#83C1CE"/>
<path opacity="0.3" d="M126.922 55.6773H168.686V56.1818C168.686 56.6342 168.505 57.0681 168.182 57.388C167.858 57.708 167.42 57.8877 166.963 57.8877H128.645C128.188 57.8877 127.75 57.708 127.427 57.388C127.103 57.0681 126.922 56.6342 126.922 56.1818V55.6773Z" fill="white"/>
<path opacity="0.3" d="M144.401 55.7368C144.403 56.0296 144.522 56.3098 144.732 56.5163C144.941 56.7227 145.225 56.8386 145.521 56.8386H150.63C150.925 56.8386 151.208 56.7225 151.417 56.5159C151.626 56.3092 151.743 56.029 151.743 55.7368H144.401Z" fill="black"/>
<path d="M91.9705 100.602L87.6526 99.3606C87.2334 99.2205 86.7991 99.1292 86.3586 99.0884L83.4621 98.969L81.0954 97.9866C80.9667 97.9131 80.8216 97.8723 80.6732 97.8679C80.5247 97.8636 80.3774 97.8957 80.2446 97.9615C80.1117 98.0272 79.9974 98.1246 79.9118 98.2448C79.8263 98.365 79.7722 98.5044 79.7544 98.6504L79.6002 100.23C79.5862 100.387 79.6141 100.546 79.6812 100.689C79.7483 100.832 79.8521 100.955 79.9824 101.047L83.4688 103.463L88.3432 102.653L92.7147 104.744L93.231 100.987L91.9705 100.602Z" fill="#B55B52"/>
<path d="M168.03 101.77L172.401 100.714C172.826 100.595 173.262 100.521 173.702 100.495H176.599L179.006 99.619C179.138 99.5422 179.289 99.5007 179.442 99.4984C179.596 99.4961 179.748 99.5332 179.882 99.606C180.017 99.6787 180.131 99.7848 180.212 99.9138C180.294 100.043 180.34 100.191 180.347 100.343L180.434 101.929C180.443 102.086 180.409 102.242 180.338 102.382C180.266 102.522 180.158 102.64 180.025 102.725L176.431 104.996L171.57 103.98L167.111 105.885L166.763 102.115L168.03 101.77Z" fill="#B55B52"/>
<path d="M119.166 222.084L118.133 231.476L112.95 230.932L113.48 220.69L119.166 222.084Z" fill="#B55B52"/>
<path d="M110.509 231.025C109.957 231.049 109.417 230.866 108.994 230.514C108.945 230.432 108.923 230.336 108.931 230.241C108.94 230.146 108.978 230.056 109.041 229.983C109.089 229.915 109.151 229.856 109.222 229.812C109.294 229.768 109.373 229.738 109.457 229.724C110.348 229.552 112.105 230.72 112.179 230.773C112.201 230.787 112.218 230.807 112.228 230.831C112.238 230.855 112.239 230.881 112.232 230.906C112.226 230.93 112.212 230.952 112.193 230.969C112.174 230.985 112.15 230.996 112.125 230.999C111.589 231.057 111.048 231.066 110.509 231.025ZM109.745 229.957C109.667 229.943 109.588 229.943 109.51 229.957C109.458 229.961 109.407 229.977 109.362 230.003C109.317 230.03 109.278 230.066 109.249 230.109C109.148 230.255 109.175 230.328 109.209 230.375C109.423 230.733 110.744 230.839 111.736 230.793C111.132 230.391 110.456 230.107 109.745 229.957Z" fill="#83C1CE"/>
<path d="M112.105 231C112.088 231.006 112.069 231.006 112.052 231C111.448 230.681 110.268 229.46 110.429 228.882C110.429 228.743 110.57 228.577 110.912 228.57C111.036 228.567 111.159 228.589 111.275 228.634C111.39 228.68 111.495 228.749 111.582 228.836C112.212 229.426 112.253 230.827 112.253 230.907C112.253 230.928 112.248 230.949 112.237 230.968C112.227 230.987 112.211 231.002 112.192 231.013L112.105 231ZM110.979 228.796H110.912C110.684 228.796 110.664 228.889 110.65 228.922C110.59 229.267 111.354 230.21 111.991 230.641C111.976 230.048 111.777 229.473 111.421 228.995C111.307 228.885 111.157 228.82 110.999 228.809L110.979 228.796Z" fill="#83C1CE"/>
<path d="M112.715 230.309L118.441 230.741C118.547 230.746 118.647 230.787 118.725 230.857C118.804 230.928 118.855 231.022 118.87 231.126L119.541 235.819C119.555 235.92 119.549 236.022 119.523 236.12C119.497 236.219 119.451 236.311 119.389 236.392C119.326 236.473 119.248 236.541 119.159 236.591C119.07 236.642 118.972 236.675 118.87 236.688H118.703C116.644 236.496 114.814 236.25 112.246 236.064C109.209 235.839 109.953 236.257 106.379 236.064C104.227 235.938 104.019 233.489 104.938 233.409C109.148 233.197 109.678 231.982 111.401 230.628C111.784 230.363 112.252 230.25 112.715 230.309Z" fill="#03045E"/>
<path opacity="0.2" d="M113.185 226.373L117.054 226.233L118.636 226.884L118.422 228.869L113.064 228.557L113.185 226.373Z" fill="black"/>
<path d="M132.307 127.464L122.363 186.334L119.943 227.614L112.159 227.481C110.527 212.701 110.107 197.815 110.905 182.969C112.119 161.111 117.254 135.549 117.824 128.261L120.701 123.229L126.426 123.94L132.307 127.464Z" fill="#03045E"/>
<path d="M147.305 232.558L151.731 232.06C151.731 232.06 151.603 230.255 151.382 227.341C151.335 226.677 151.281 226.013 151.228 225.237L146.145 226.133H146.092C146.092 226.246 146.139 226.358 146.159 226.465C146.266 227.055 146.38 227.6 146.474 228.124C146.977 230.865 147.305 232.558 147.305 232.558Z" fill="#B55B52"/>
<path d="M152.568 230.502C152.542 230.5 152.517 230.491 152.496 230.476C152.474 230.461 152.458 230.44 152.448 230.416C152.441 230.392 152.441 230.367 152.448 230.343C152.455 230.32 152.469 230.299 152.488 230.283C152.562 230.223 154.204 228.896 155.116 228.995C155.284 229.011 155.44 229.09 155.552 229.214C155.621 229.282 155.668 229.37 155.685 229.465C155.702 229.56 155.688 229.658 155.646 229.745C155.478 230.057 154.828 230.283 154.184 230.409C153.649 230.483 153.109 230.514 152.568 230.502ZM152.937 230.27C153.929 230.23 155.237 230.011 155.425 229.606C155.425 229.559 155.472 229.48 155.358 229.347C155.325 229.305 155.284 229.272 155.236 229.249C155.188 229.225 155.136 229.214 155.083 229.214C155.003 229.204 154.921 229.204 154.841 229.214C154.146 229.446 153.5 229.804 152.937 230.27Z" fill="#83C1CE"/>
<path d="M152.502 230.501C152.481 230.494 152.463 230.48 152.449 230.463C152.436 230.445 152.429 230.423 152.429 230.401C152.429 230.335 152.328 228.921 152.905 228.277C152.987 228.18 153.089 228.101 153.205 228.046C153.321 227.991 153.447 227.961 153.575 227.958C153.924 227.958 154.058 228.085 154.091 228.224C154.299 228.788 153.233 230.109 152.657 230.481C152.641 230.486 152.625 230.486 152.61 230.481C152.596 230.494 152.578 230.503 152.559 230.506C152.54 230.51 152.52 230.508 152.502 230.501ZM153.508 228.197C153.354 228.224 153.214 228.304 153.112 228.423C152.799 228.931 152.649 229.521 152.683 230.116C153.267 229.631 153.937 228.622 153.85 228.284C153.85 228.284 153.803 228.164 153.582 228.184H153.508V228.197Z" fill="#83C1CE"/>
<path d="M151.583 229.978L147.064 230.641C146.96 230.659 146.865 230.712 146.794 230.79C146.723 230.868 146.682 230.968 146.676 231.073L146.414 235.812C146.407 235.912 146.42 236.013 146.452 236.108C146.484 236.203 146.535 236.29 146.602 236.366C146.669 236.441 146.75 236.502 146.841 236.546C146.932 236.59 147.03 236.616 147.131 236.622C147.187 236.629 147.243 236.629 147.299 236.622C149.311 236.25 149.981 236.078 152.529 235.666C155.539 235.175 154.835 235.666 158.382 235.129C160.514 234.803 160.507 232.347 159.582 232.374C155.365 232.553 152.026 229.885 151.583 229.978Z" fill="#03045E"/>
<path opacity="0.2" d="M146.454 228.131L151.382 227.341C151.335 226.677 151.281 226.013 151.228 225.237L146.146 226.133V226.471C146.246 227.062 146.36 227.606 146.454 228.131Z" fill="black"/>
<path opacity="0.2" d="M129.926 141.138L127.245 156.876C126.447 145.592 127.513 132.164 127.513 132.164L129.926 141.138Z" fill="black"/>
<path d="M140.835 125.998C140.835 125.998 147.151 171.427 149.505 183.116C151.596 193.497 151.979 226.334 151.979 226.334L145.053 227.104C145.053 227.104 141.097 209.036 139.789 196.331C139.333 191.897 139.461 188.18 139.052 185.897C138.509 182.883 120.848 134.229 124.134 126.549L140.835 125.998Z" fill="#03045E"/>
<path d="M117.556 119.903C117.787 117.938 117.843 115.956 117.723 113.982C116.134 95.1972 115.564 94.0687 115.712 90.7499C115.721 90.4559 115.82 90.1716 115.996 89.9346C116.172 89.6975 116.417 89.5189 116.697 89.4224C129.825 85.0017 140.037 87.0992 143 88.7586C146.949 90.9623 145.374 93.3187 145.327 93.9891C144.945 99.5581 141.847 109.88 141.78 118.914C141.78 120.241 141.914 123.427 142.001 125.193C142.018 125.54 141.909 125.881 141.694 126.155C141.478 126.428 141.171 126.617 140.828 126.686C137.885 127.29 124.971 127.45 122.551 127.35C120.238 127.271 118.716 127.131 117.743 127.005C117.543 126.978 117.35 126.91 117.178 126.805C117.005 126.7 116.856 126.561 116.741 126.396C116.626 126.231 116.546 126.044 116.507 125.848C116.469 125.651 116.472 125.448 116.516 125.253C116.892 123.666 117.442 121.078 117.556 119.903Z" fill="#83C1CE"/>
<path d="M133.353 78.0137C132.857 80.921 133.058 85.1891 135.156 87.0808C135.156 87.0808 135.116 90.0412 126.909 93.4397C123.812 89.2712 126.011 87.2998 126.011 87.2998C129.276 86.4502 128.485 85.1293 127.862 82.8858L133.353 78.0137Z" fill="#B55B52"/>
<path opacity="0.2" d="M131.12 79.9722L127.889 82.8862C128.043 83.4046 128.15 83.9355 128.21 84.4726C129.464 84.2668 131.402 83.145 131.637 81.8175C131.622 81.1696 131.444 80.5354 131.12 79.9722Z" fill="black"/>
<path d="M137.054 72.9419C135.861 77.7277 135.452 79.7721 132.522 81.8032C128.11 84.8699 122.465 82.3608 122.163 77.3161C121.921 72.776 123.933 65.6869 129.075 64.6581C130.209 64.422 131.384 64.4765 132.49 64.8163C133.596 65.1561 134.596 65.77 135.396 66.5997C136.195 67.4295 136.767 68.4476 137.057 69.5576C137.347 70.6675 137.346 71.8324 137.054 72.9419Z" fill="#B55B52"/>
<path d="M128.66 72.3248C128.579 72.7165 128.311 72.9886 128.056 72.9886C127.801 72.9886 127.641 72.5771 127.714 72.1854C127.788 71.7938 128.063 71.5217 128.318 71.5549C128.572 71.588 128.72 71.9465 128.66 72.3248Z" fill="#263238"/>
<path d="M124.207 71.5541C124.134 71.9524 123.859 72.2179 123.604 72.2179C123.349 72.2179 123.188 71.8064 123.262 71.4147C123.336 71.0231 123.611 70.751 123.866 70.7908C124.12 70.8306 124.281 71.1559 124.207 71.5541Z" fill="#263238"/>
<path d="M125.783 72.9422C125.26 73.7766 124.624 74.536 123.893 75.199C124.069 75.38 124.284 75.5208 124.521 75.6113C124.759 75.7019 125.013 75.7401 125.267 75.7234L125.783 72.9422Z" fill="#A02724"/>
<path d="M127.144 77.662C126.943 77.6563 126.744 77.6341 126.547 77.5957C126.532 77.5933 126.518 77.5879 126.505 77.5799C126.492 77.5718 126.481 77.5613 126.472 77.549C126.463 77.5366 126.457 77.5226 126.454 77.5078C126.45 77.493 126.45 77.4777 126.453 77.4629C126.456 77.4473 126.461 77.4323 126.47 77.419C126.478 77.4056 126.489 77.3942 126.503 77.3855C126.516 77.3767 126.531 77.3708 126.547 77.3681C126.562 77.3655 126.579 77.3661 126.594 77.37C127.087 77.4686 127.597 77.4515 128.083 77.3201C128.568 77.1887 129.016 76.9466 129.39 76.6133C129.412 76.5904 129.443 76.5772 129.475 76.5766C129.507 76.5759 129.538 76.5879 129.561 76.61C129.584 76.632 129.597 76.6622 129.598 76.6939C129.599 76.7256 129.586 76.7563 129.564 76.7792C129.24 77.0773 128.859 77.3088 128.443 77.4603C128.028 77.6118 127.586 77.6804 127.144 77.662Z" fill="#263238"/>
<path d="M130.785 71.7209C130.736 71.7301 130.684 71.7226 130.639 71.6998C130.595 71.677 130.559 71.6401 130.537 71.5948C130.326 71.2733 130.049 70.9988 129.725 70.7886C129.4 70.5783 129.035 70.437 128.653 70.3735C128.59 70.3637 128.533 70.3295 128.496 70.2785C128.458 70.2275 128.442 70.1638 128.452 70.1013C128.462 70.0407 128.496 69.9863 128.546 69.9502C128.596 69.9142 128.659 69.8993 128.72 69.9088C129.179 69.9808 129.617 70.1504 130.004 70.4059C130.39 70.6615 130.716 70.9969 130.96 71.3891C130.986 71.4447 130.989 71.5082 130.969 71.5663C130.949 71.6243 130.907 71.6726 130.852 71.701C130.832 71.7127 130.809 71.7195 130.785 71.7209Z" fill="#263238"/>
<path d="M123.423 70.0214C123.381 70.0312 123.337 70.0295 123.296 70.0167C123.255 70.0039 123.218 69.9803 123.189 69.9484C123.166 69.9267 123.149 69.9009 123.136 69.8724C123.124 69.8439 123.118 69.8133 123.118 69.7824C123.118 69.7515 123.124 69.7209 123.136 69.6924C123.149 69.6639 123.166 69.6381 123.189 69.6165C123.461 69.3515 123.794 69.1567 124.16 69.049C124.526 68.9414 124.913 68.9243 125.287 68.9992C125.317 69.0047 125.345 69.016 125.369 69.0325C125.394 69.049 125.415 69.0702 125.432 69.0951C125.448 69.1199 125.459 69.1477 125.464 69.1768C125.469 69.206 125.468 69.2359 125.462 69.2647C125.447 69.3245 125.409 69.3762 125.357 69.4086C125.304 69.4409 125.24 69.4512 125.18 69.4373C124.885 69.3871 124.582 69.4073 124.296 69.4962C124.01 69.5851 123.75 69.7401 123.537 69.9484C123.508 69.9836 123.468 70.0091 123.423 70.0214Z" fill="#263238"/>
<path d="M136.034 86.7898L135.169 86.6438L130.362 89.2391L128.874 89.2922L126.017 86.8894L125.059 87.1151C124.169 89.8392 123.998 92.7436 124.562 95.5516L126.178 103.583L127.868 112.378L128.23 111.568L129.571 108.542L131.408 105.09L134.76 96.6468L135.712 93.1687C136.277 91.0908 136.375 88.9159 136.001 86.7965L136.034 86.7898Z" fill="#83C1CE"/>
<path opacity="0.2" d="M130.852 89.2976C125.696 89.344 125.126 87.4656 125.126 87.4656V87.0474C125.126 87.0474 123.571 89.9481 128.043 90.4592C132.515 90.9703 135.498 88.8728 136.135 87.6116C135.639 88.2488 134.305 89.271 130.852 89.2976Z" fill="black"/>
<path d="M136.866 66.3642C136.701 65.5903 136.328 64.8748 135.787 64.2932C135.506 64.0136 135.128 63.8524 134.73 63.8437C134.332 63.8351 133.947 63.9796 133.654 64.2468C133.217 63.7565 132.671 63.3731 132.059 63.1267C131.448 62.8802 130.786 62.7774 130.128 62.8263C129.502 62.8807 128.9 63.0857 128.373 63.4235C127.845 63.7614 127.41 64.2217 127.104 64.7645C126.507 65.8597 124.623 66.2447 123.376 66.3708C124.194 67.1873 126.219 67.6984 127.231 67.1474C126.983 67.5324 125.85 67.7382 125.387 67.8112C126.132 68.2557 126.96 68.5469 127.821 68.6675C128.253 68.7204 128.691 68.6436 129.079 68.4472C129.466 68.2507 129.785 67.9436 129.994 67.5656C129.807 67.8764 129.728 68.2387 129.768 68.5979C129.808 68.9571 129.965 69.2937 130.215 69.5569C130.471 69.8175 130.805 69.9894 131.167 70.0468C131.53 70.1042 131.901 70.0441 132.226 69.8755C132.02 69.8117 131.841 69.6805 131.719 69.5034C131.598 69.3262 131.54 69.1135 131.556 68.8998C131.563 68.6707 131.641 68.4494 131.781 68.2664C131.92 68.0833 132.113 67.9475 132.334 67.8776C132.399 68.492 132.704 69.0567 133.185 69.4507C133.628 69.7893 134.016 69.9286 134.291 70.4132C134.566 70.8977 134.238 72.0726 133.359 71.993C133.755 72.4111 135.371 72.2585 135.552 71.7142C135.41 72.4006 135.119 73.0485 134.7 73.6134C134.281 74.1782 133.744 74.6467 133.125 74.9866C133.446 75.0043 133.763 75.0714 134.063 75.1857C134.239 75.2247 134.405 75.2982 134.551 75.402C134.697 75.5058 134.821 75.6376 134.915 75.7897C135.001 76.023 135.04 76.2709 135.03 76.5192C135.02 76.7675 134.96 77.0113 134.855 77.2367C134.45 78.4698 133.967 79.676 133.406 80.8477C134.208 80.6341 134.95 80.2428 135.576 79.7035C136.202 79.1642 136.696 78.4909 137.02 77.7346C137.786 77.4736 138.443 76.9699 138.891 76.3015C139.338 75.6331 139.55 74.8372 139.494 74.0374C140.288 73.345 140.825 72.4109 141.023 71.3823C141.089 70.8861 140.968 70.3832 140.684 69.9694C140.4 69.5557 139.971 69.26 139.481 69.1388C139.644 68.7452 139.696 68.3152 139.633 67.8945C139.569 67.4738 139.391 67.078 139.119 66.7492C138.996 66.5774 138.841 66.4312 138.662 66.3188C138.482 66.2065 138.282 66.1303 138.073 66.0945C137.864 66.0588 137.649 66.0642 137.442 66.1105C137.235 66.1567 137.039 66.2429 136.866 66.3642Z" fill="#263238"/>
<path d="M136.853 76.427C136.416 77.1869 135.693 77.7451 134.842 77.9802C133.709 78.2789 133.152 77.2633 133.501 76.2013C133.802 75.2521 134.754 73.9511 135.894 74.1038C136.09 74.1367 136.277 74.2075 136.445 74.3121C136.613 74.4167 136.758 74.5531 136.873 74.7134C136.987 74.8737 137.069 75.0548 137.113 75.2463C137.156 75.4378 137.162 75.636 137.128 75.8296C137.084 76.0471 136.99 76.2517 136.853 76.427Z" fill="#B55B52"/>
<path d="M134.694 72.9824L131.395 72.4249C131.12 71.5885 129.927 71.3894 129.424 71.3031C128.921 71.2168 127.64 71.0044 127.131 71.8075L125.984 71.6084C125.77 70.6924 124.509 70.4734 123.973 70.3871C123.437 70.3008 121.727 70.0087 121.485 71.3894C121.452 71.947 121.628 72.4971 121.978 72.9346C122.329 73.3722 122.83 73.6663 123.387 73.7608C123.943 73.8553 124.514 73.7435 124.992 73.4468C125.47 73.1501 125.821 72.6894 125.978 72.1527C125.984 72.0776 125.984 72.0021 125.978 71.927L126.963 72.093C126.941 72.1648 126.923 72.2379 126.91 72.312C126.878 72.8689 127.055 73.4176 127.407 73.8535C127.758 74.2895 128.259 74.5822 128.814 74.6757C129.37 74.7692 129.941 74.6571 130.418 74.3608C130.895 74.0644 131.245 73.6044 131.402 73.0687C131.412 72.9605 131.412 72.8517 131.402 72.7435L134.593 73.2878C135.029 73.36 135.425 73.5807 135.713 73.9117L135.948 73.7126C135.625 73.3358 135.183 73.0785 134.694 72.9824ZM123.457 73.4603C122.974 73.4067 122.531 73.1686 122.223 72.7966C121.915 72.4246 121.766 71.9483 121.807 71.469C121.941 70.7123 122.572 70.4866 123.933 70.7123C125.294 70.938 125.817 71.3761 125.683 72.1262C125.561 72.5949 125.258 72.9974 124.839 73.2469C124.42 73.4965 123.919 73.5731 123.443 73.4603H123.457ZM128.894 74.3763C128.412 74.3227 127.97 74.0843 127.663 73.7122C127.356 73.34 127.208 72.8636 127.252 72.385C127.379 71.6283 128.016 71.4026 129.377 71.635C130.738 71.8673 131.254 72.2987 131.127 73.0422C131.005 73.5123 130.701 73.916 130.28 74.1657C129.86 74.4154 129.357 74.4911 128.881 74.3763H128.894Z" fill="#263238"/>
<path d="M91.1124 99.9654C96.056 101.231 101.194 101.577 106.265 100.988C108.895 96.4355 112.458 92.4787 116.725 89.3716L118.602 96.3412C118.602 96.3412 113.01 105.136 108.484 107.161C104.897 108.767 94.1362 105.906 89.8184 104.645C89.8828 103.008 90.3255 101.407 91.1124 99.9654Z" fill="#83C1CE"/>
<path d="M169.177 100.747C164.212 101.89 159.078 102.115 154.031 101.411C151.506 96.8005 148.032 92.7663 143.833 89.5693L141.821 96.4924C141.821 96.4924 147.219 105.414 151.704 107.531C155.251 109.21 166.072 106.582 170.417 105.42C170.366 103.79 169.942 102.192 169.177 100.747Z" fill="#83C1CE"/>
<path d="M125.146 85.5811V87.4662C125.146 87.4662 125.549 89.5106 130.705 89.4575C135.861 89.4044 136.464 86.9949 136.464 86.9949V85.6275C136.467 85.397 136.419 85.1687 136.322 84.9592C136.225 84.7496 136.082 84.5641 135.903 84.416C135.725 84.268 135.515 84.1611 135.29 84.1031C135.064 84.0452 134.829 84.0376 134.6 84.081C132.055 84.4771 129.462 84.4771 126.917 84.081C126.699 84.053 126.477 84.0706 126.267 84.1327C126.056 84.1948 125.861 84.3 125.695 84.4414C125.528 84.5828 125.393 84.7573 125.298 84.9536C125.204 85.1499 125.152 85.3637 125.146 85.5811Z" fill="#83C1CE"/>
<path fill-rule="evenodd" clip-rule="evenodd" d="M126.019 3.33386C126.019 3.12471 126.102 2.92412 126.252 2.77623C126.401 2.62834 126.604 2.54526 126.815 2.54526H134.781C134.992 2.54526 135.195 2.62834 135.344 2.77623C135.493 2.92412 135.577 3.12471 135.577 3.33386V11.2199C135.577 11.429 135.493 11.6296 135.344 11.7775C135.195 11.9254 134.992 12.0085 134.781 12.0085H126.815C126.604 12.0085 126.401 11.9254 126.252 11.7775C126.102 11.6296 126.019 11.429 126.019 11.2199V3.33386ZM130.267 6.75113V4.64819H131.329V6.75113H133.453V7.80259H131.329V9.90553H130.267V7.80259H128.143V6.75113H130.267Z" fill="white"/>
<path d="M167.214 18.321L166.444 17.6271C163.709 15.1719 161.903 13.5474 161.903 11.5654C161.903 9.94085 163.188 8.67383 164.824 8.67383C165.748 8.67383 166.635 9.09967 167.214 9.76735C167.793 9.09967 168.679 8.67383 169.603 8.67383C171.239 8.67383 172.524 9.94085 172.524 11.5654C172.524 13.5474 170.719 15.1719 167.984 17.6271L167.214 18.321Z" fill="white"/>
<g clip-path="url(#clip0_156_11309)">
<path d="M192.339 29.4187C192.721 29.4184 193.091 29.5543 193.381 29.8016C193.67 30.049 193.86 30.3912 193.916 30.7658C193.972 31.1404 193.89 31.5224 193.685 31.8419C193.48 32.1615 193.165 32.3973 192.799 32.5063L192.708 32.5305L193.997 33.9894L194.966 34.4683C195.088 34.5276 195.183 34.6311 195.231 34.7576C195.278 34.8841 195.275 35.0238 195.221 35.1479C195.167 35.2719 195.067 35.3707 194.942 35.4239C194.817 35.4771 194.676 35.4806 194.548 35.4336L194.491 35.4089L193.523 34.9294C193.43 34.8837 193.345 34.8249 193.27 34.7549L193.198 34.6813L192.658 34.0698L192.307 35.4567C192.275 35.5829 192.22 35.7022 192.145 35.8084L192.086 35.8831L193.11 36.81C193.242 36.9291 193.341 37.0791 193.399 37.2463L193.424 37.3304L193.816 38.8819H193.932C194.067 38.882 194.198 38.9333 194.296 39.0253C194.394 39.1173 194.454 39.243 194.462 39.3768C194.47 39.5106 194.426 39.6423 194.339 39.745C194.252 39.8478 194.129 39.9138 193.994 39.9297L193.932 39.9333H193.442C193.323 39.9333 193.207 39.8974 193.11 39.8303C193.012 39.7632 192.937 39.6682 192.895 39.558L192.876 39.4949L192.394 37.5859L190.795 36.1391C190.594 36.0379 190.431 35.8762 190.329 35.6773C190.228 35.4784 190.192 35.2526 190.229 35.0325L190.247 34.9468L190.519 33.868L190.347 33.9889L189.608 35.2096C189.538 35.3248 189.427 35.4092 189.296 35.4455C189.166 35.4819 189.026 35.4675 188.906 35.4053C188.786 35.343 188.694 35.2377 188.65 35.1108C188.606 34.9839 188.612 34.8451 188.668 34.7228L188.697 34.6681L189.437 33.4479C189.497 33.349 189.572 33.2606 189.661 33.1861L189.73 33.1335L191.197 32.0952C190.979 31.8729 190.832 31.5919 190.774 31.2872C190.716 30.9826 190.75 30.6678 190.872 30.3823C190.994 30.0967 191.198 29.853 191.459 29.6816C191.72 29.5103 192.026 29.4188 192.339 29.4187ZM190.914 36.5429C190.98 36.5647 191.041 36.5992 191.094 36.6444C191.146 36.6896 191.19 36.7447 191.221 36.8065C191.252 36.8682 191.271 36.9355 191.276 37.0044C191.281 37.0732 191.272 37.1424 191.25 37.2079L191.023 37.8788C190.971 38.0337 190.884 38.1744 190.767 38.2899L189.887 39.161C189.947 39.2723 189.964 39.4009 189.936 39.5236C189.907 39.6463 189.836 39.755 189.734 39.8298C189.631 39.9047 189.505 39.9407 189.379 39.9315C189.252 39.9222 189.133 39.8682 189.043 39.7793L188.781 39.5201C188.68 39.4205 188.624 39.2855 188.624 39.1447C188.624 39.004 188.68 38.8689 188.781 38.7694L190.016 37.5465L190.242 36.8757C190.264 36.8101 190.299 36.7496 190.344 36.6974C190.39 36.6452 190.446 36.6024 190.508 36.5715C190.57 36.5406 190.638 36.5222 190.708 36.5173C190.778 36.5123 190.847 36.5211 190.914 36.5429Z" fill="white"/>
</g>
<g clip-path="url(#clip1_156_11309)">
<path d="M123.992 32.0152C125.2 31.8595 126.454 32.1268 127.488 32.7673C128.071 33.1092 128.538 33.6041 129.016 34.0726C129.363 34.4104 129.707 34.7523 130.054 35.0892L130.067 35.1243C129.807 35.3787 129.512 35.8875 129.183 36.6508C128.49 36.8928 128.018 37.1372 127.766 37.3838C127.202 36.8443 126.657 36.2857 126.095 35.7434C125.562 35.2463 124.755 35.0459 124.056 35.2741C123.259 35.4966 122.652 36.2538 122.61 37.0756C122.582 37.5031 122.694 37.9374 122.927 38.298C123.072 38.5302 123.283 38.7073 123.473 38.9012C123.928 39.3565 124.395 39.8013 124.844 40.263C124.604 40.4971 124.32 40.9503 123.992 41.6227C123.295 41.9513 122.811 42.2502 122.541 42.5193C121.935 41.9529 121.356 41.356 120.756 40.7834C120.041 40.044 119.563 39.0847 119.398 38.0727C119.217 36.9868 119.389 35.8436 119.895 34.8634C120.319 34.0416 120.961 33.3278 121.743 32.8264C122.422 32.4017 123.192 32.104 123.992 32.0152Z" fill="#EA4335"/>
<path d="M130.078 45.3889L135.315 40.2561L136.731 41.0925L137.617 42.5243L130.078 49.9412L124.848 44.7961L125.851 43.3918L127.164 42.5225L130.078 45.3889Z" fill="#34A853"/>
<path d="M127.77 37.3888L129.088 38.0974L130.077 39.6634L124.847 44.7961L122.541 42.5193L127.77 37.3888Z" fill="#FBBC05"/>
<path d="M136.393 32.0466C137.927 32.3053 139.339 33.2582 140.113 34.6062C140.994 36.0872 141.042 38.009 140.26 39.5414C139.936 40.1997 139.441 40.7551 138.914 41.2601C138.477 41.6757 138.062 42.1192 137.617 42.5243C136.848 41.7705 136.078 41.0169 135.315 40.2562C135.858 39.7103 136.41 39.1735 136.956 38.6295C137.307 38.2762 137.528 37.7917 137.546 37.2933C137.57 36.7273 137.345 36.1533 136.933 35.7608C136.512 35.3652 135.923 35.1403 135.344 35.188C134.845 35.2117 134.364 35.4367 134.012 35.7872C132.7 37.0783 131.391 38.3731 130.077 39.6634C129.305 38.9085 128.532 38.1547 127.77 37.3888C127.769 37.3871 127.767 37.3854 127.766 37.3838C128.535 36.6326 129.299 35.8764 130.067 35.1243C130.624 34.5789 131.179 34.0312 131.736 33.4854C132.458 32.7646 133.409 32.2925 134.403 32.0758C135.058 31.9533 135.734 31.9396 136.393 32.0466Z" fill="#4285F4"/>
</g>
<defs>
<clipPath id="clip0_156_11309">
<rect width="12.7451" height="12.6176" fill="white" transform="translate(185.967 28.3672)"/>
</clipPath>
<clipPath id="clip1_156_11309">
<rect width="21.4846" height="18.0252" fill="white" transform="translate(119.328 31.9719)"/>
</clipPath>
</defs>
</svg>
