<svg width="18" height="19" viewBox="0 0 18 19" fill="none" xmlns="http://www.w3.org/2000/svg">
<path d="M17 16.5V8C17 7.84475 16.9639 7.69164 16.8944 7.55279C16.825 7.41393 16.7242 7.29315 16.6 7.2L9.6 1.95C9.4269 1.82018 9.21637 1.75 9 1.75C8.78363 1.75 8.5731 1.82018 8.4 1.95L1.4 7.2C1.2758 7.29315 1.175 7.41393 1.10557 7.55279C1.03614 7.69164 1 7.84475 1 8V16.5C1 16.7652 1.10536 17.0196 1.29289 17.2071C1.48043 17.3946 1.73478 17.5 2 17.5H6C6.26522 17.5 6.51957 17.3946 6.70711 17.2071C6.89464 17.0196 7 16.7652 7 16.5V13.5C7 13.2348 7.10536 12.9804 7.29289 12.7929C7.48043 12.6054 7.73478 12.5 8 12.5H10C10.2652 12.5 10.5196 12.6054 10.7071 12.7929C10.8946 12.9804 11 13.2348 11 13.5V16.5C11 16.7652 11.1054 17.0196 11.2929 17.2071C11.4804 17.3946 11.7348 17.5 12 17.5H16C16.2652 17.5 16.5196 17.3946 16.7071 17.2071C16.8946 17.0196 17 16.7652 17 16.5Z" stroke="#03045E" stroke-width="2" stroke-linecap="round" stroke-linejoin="round"/>
</svg>
