<svg width="30" height="30" viewBox="0 0 30 30" fill="none" xmlns="http://www.w3.org/2000/svg">
<g clip-path="url(#clip0_155_9620)">
<path d="M14.348 0.47998C7.67845 0.47998 2.25195 4.98574 2.25195 10.524C2.25195 14.0514 4.52522 17.3619 8.18858 19.1786C8.01347 19.7229 7.49746 20.6852 6.9612 21.4657C6.82239 21.6679 6.8273 21.9353 6.97245 22.1329C7.08304 22.2838 7.25624 22.368 7.43595 22.368C7.49298 22.368 7.54938 22.3588 7.60583 22.3421C9.00493 21.9101 10.5091 21.0709 11.342 20.253C11.8658 20.3646 12.399 20.4405 12.9361 20.4915C14.3138 21.6513 16.2168 22.3624 18.2888 22.3624C18.9636 22.3624 19.6404 22.2833 20.3026 22.1295C20.9053 22.5496 21.5605 22.7077 22.1656 22.9136C22.2784 22.9523 22.4005 22.9551 22.5149 22.9214C22.6294 22.8878 22.7306 22.8195 22.8045 22.7259C22.8785 22.6323 22.9216 22.5181 22.9278 22.3989C22.9341 22.2798 22.9032 22.1617 22.8395 22.0609C22.6332 21.733 22.5097 21.5951 22.3962 21.3307C24.514 20.1746 25.8376 18.1965 25.8376 16.0286C25.8376 15.4226 25.7306 14.8415 25.5439 14.2905C26.1176 13.1261 26.4439 11.8578 26.4439 10.524C26.4439 4.98574 21.0175 0.47998 14.348 0.47998ZM18.2888 10.848C21.8757 10.848 24.6856 13.2326 24.6856 16.0286C24.6856 17.7425 23.6479 19.3542 21.8123 20.3419C21.812 20.3422 21.8116 20.3426 21.8112 20.343C21.4477 20.5391 21.3026 20.9276 21.3016 21.3251C21.2002 21.2749 21.0251 21.2395 20.9416 21.18C20.9412 21.1796 20.9408 21.1792 20.9405 21.1789C20.7576 21.0495 20.5339 20.9764 20.3071 20.9764C20.2229 20.9764 20.1383 20.9863 20.0562 21.0056C19.4749 21.1418 18.8802 21.2104 18.2888 21.2104C14.702 21.2104 11.8921 18.8246 11.8921 16.0286C11.8921 13.2326 14.702 10.848 18.2888 10.848ZM15.329 14.9126C15.1776 14.9095 15.0271 14.9366 14.8863 14.9924C14.7455 15.0482 14.6173 15.1316 14.5091 15.2375C14.4009 15.3435 14.315 15.47 14.2563 15.6096C14.1977 15.7492 14.1675 15.8991 14.1675 16.0505C14.1675 16.202 14.1977 16.3519 14.2563 16.4915C14.315 16.6311 14.4009 16.7576 14.5091 16.8636C14.6173 16.9695 14.7455 17.0529 14.8863 17.1086C15.0271 17.1644 15.1776 17.1916 15.329 17.1885C15.4803 17.1916 15.6308 17.1644 15.7716 17.1086C15.9124 17.0529 16.0406 16.9695 16.1488 16.8636C16.257 16.7576 16.3429 16.6311 16.4016 16.4915C16.4602 16.3519 16.4904 16.202 16.4904 16.0505C16.4904 15.8991 16.4602 15.7492 16.4016 15.6096C16.3429 15.47 16.257 15.3435 16.1488 15.2375C16.0406 15.1316 15.9124 15.0482 15.7716 14.9924C15.6308 14.9366 15.4803 14.9095 15.329 14.9126ZM18.5161 14.9126C18.3647 14.9095 18.2142 14.9366 18.0734 14.9924C17.9326 15.0482 17.8044 15.1316 17.6962 15.2375C17.5881 15.3435 17.5021 15.47 17.4435 15.6096C17.3848 15.7492 17.3546 15.8991 17.3546 16.0505C17.3546 16.202 17.3848 16.3519 17.4435 16.4915C17.5021 16.6311 17.5881 16.7576 17.6962 16.8636C17.8044 16.9695 17.9326 17.0529 18.0734 17.1086C18.2142 17.1644 18.3647 17.1916 18.5161 17.1885C18.6675 17.1916 18.818 17.1644 18.9587 17.1086C19.0995 17.0529 19.2277 16.9695 19.3359 16.8636C19.4441 16.7576 19.53 16.6311 19.5887 16.4915C19.6473 16.3519 19.6776 16.202 19.6776 16.0505C19.6776 15.8991 19.6473 15.7492 19.5887 15.6096C19.53 15.47 19.4441 15.3435 19.3359 15.2375C19.2277 15.1316 19.0995 15.0482 18.9587 14.9924C18.818 14.9366 18.6675 14.9095 18.5161 14.9126ZM21.7032 14.9126C21.5518 14.9095 21.4013 14.9366 21.2605 14.9924C21.1198 15.0482 20.9915 15.1316 20.8834 15.2375C20.7752 15.3435 20.6893 15.47 20.6306 15.6096C20.5719 15.7492 20.5417 15.8991 20.5417 16.0505C20.5417 16.202 20.5719 16.3519 20.6306 16.4915C20.6893 16.6311 20.7752 16.7576 20.8834 16.8636C20.9915 16.9695 21.1198 17.0529 21.2605 17.1086C21.4013 17.1644 21.5518 17.1916 21.7032 17.1885C21.8546 17.1916 22.0051 17.1644 22.1459 17.1086C22.2866 17.0529 22.4149 16.9695 22.523 16.8636C22.6312 16.7576 22.7171 16.6311 22.7758 16.4915C22.8345 16.3519 22.8647 16.202 22.8647 16.0505C22.8647 15.8991 22.8345 15.7492 22.7758 15.6096C22.7171 15.47 22.6312 15.3435 22.523 15.2375C22.4149 15.1316 22.2866 15.0482 22.1459 14.9924C22.0051 14.9366 21.8546 14.9095 21.7032 14.9126Z" fill="#03045E"/>
</g>
<defs>
<clipPath id="clip0_155_9620">
<rect width="28.8" height="28.8" fill="white" transform="translate(0.332031 0.47998)"/>
</clipPath>
</defs>
</svg>
