<svg width="26" height="19" viewBox="0 0 26 19" fill="none" xmlns="http://www.w3.org/2000/svg">
<path d="M7.73688 9.50001C9.79585 9.50001 11.465 7.83089 11.465 5.77192C11.465 3.71295 9.79585 2.04382 7.73688 2.04382C5.67791 2.04382 4.00879 3.71295 4.00879 5.77192C4.00879 7.83089 5.67791 9.50001 7.73688 9.50001Z" fill="white"/>
<path d="M11.9036 11.4384C10.4305 10.6797 8.80474 10.3772 7.61416 10.3772C5.28218 10.3772 0.5 11.8278 0.5 14.7279V16.9562H8.3465V16.1036C8.3465 15.0955 8.76498 14.0848 9.49732 13.2423C10.0816 12.5695 10.8998 11.9451 11.9036 11.4384Z" fill="white"/>
<path d="M17.3856 11.2544C14.6772 11.2544 9.27148 12.9196 9.27148 16.2252V18.7106H25.4997V16.2252C25.4997 12.9196 20.0939 11.2544 17.3856 11.2544Z" fill="white"/>
<path d="M17.3856 9.50004C19.929 9.50004 21.9909 7.43818 21.9909 4.89475C21.9909 2.35132 19.929 0.289459 17.3856 0.289459C14.8421 0.289459 12.7803 2.35132 12.7803 4.89475C12.7803 7.43818 14.8421 9.50004 17.3856 9.50004Z" fill="white"/>
</svg>
