<svg width="24" height="24" viewBox="0 0 24 24" fill="none" xmlns="http://www.w3.org/2000/svg">
<path d="M12.0395 1.38141L12 1.36824L11.9605 1.38141L2.96047 4.38141L2.875 4.40991V4.5V13.5C2.875 18.5401 6.95987 22.625 12 22.625C17.0401 22.625 21.125 18.5401 21.125 13.5V4.5V4.40991L21.0395 4.38141L12.0395 1.38141ZM19.1875 13.5C19.1875 17.4692 15.9692 20.6875 12 20.6875C8.03075 20.6875 4.8125 17.4692 4.8125 13.5V5.8541L12 3.32004L19.1875 5.8541V13.5Z" fill="#03045E" stroke="#03045E" stroke-width="0.25"/>
<path d="M8.86857 11.1352C8.79037 11.0566 8.69742 10.9943 8.59505 10.9517C8.49269 10.9092 8.38294 10.8873 8.27209 10.8873C8.16124 10.8873 8.05148 10.9092 7.94912 10.9517C7.84676 10.9943 7.75381 11.0566 7.6756 11.1352C7.59704 11.2134 7.5347 11.3063 7.49217 11.4087C7.44963 11.511 7.42773 11.6208 7.42773 11.7316C7.42773 11.8425 7.44963 11.9522 7.49217 12.0546C7.5347 12.157 7.59704 12.2499 7.6756 12.3281L10.7084 15.3609L10.7576 15.4102C10.8316 15.4843 10.9195 15.5431 11.0162 15.5832C11.1129 15.6233 11.2166 15.6439 11.3213 15.6439C11.426 15.6439 11.5297 15.6233 11.6264 15.5832C11.7231 15.5431 11.811 15.4843 11.885 15.4102L17.1233 10.1719C17.1974 10.0979 17.2562 10.01 17.2963 9.91332C17.3364 9.8166 17.357 9.71292 17.357 9.6082C17.357 9.50349 17.3364 9.39981 17.2963 9.30309C17.2562 9.20637 17.1974 9.1185 17.1233 9.04453L17.0576 8.97891C16.9837 8.9048 16.8958 8.846 16.7991 8.80588C16.7024 8.76577 16.5987 8.74512 16.494 8.74512C16.3893 8.74512 16.2856 8.76577 16.1888 8.80588C16.0921 8.846 16.0043 8.9048 15.9303 8.97891L11.3201 13.5867L8.86857 11.1352Z" fill="#03045E"/>
</svg>
