<svg width="24" height="25" viewBox="0 0 24 25" fill="none" xmlns="http://www.w3.org/2000/svg">
<g clip-path="url(#clip0_155_9483)">
<path fill-rule="evenodd" clip-rule="evenodd" d="M13.181 3.0609C13.6414 2.88864 14.1444 2.86618 14.6183 2.99673L14.819 3.0609L22.9857 6.1234C23.3997 6.27867 23.7612 6.54842 24.0278 6.90122C24.2945 7.25401 24.4554 7.67533 24.4918 8.11606L24.5 8.30856V14.5654C24.5 16.4559 23.9895 18.3113 23.0225 19.9358C22.0556 21.5603 20.668 22.8936 19.0062 23.7949L18.6958 23.9571L14.7828 25.9136C14.5674 26.0211 14.332 26.0831 14.0915 26.0955C13.851 26.108 13.6106 26.0707 13.3852 25.9859L13.2172 25.9136L9.30417 23.9571C7.61321 23.1116 6.1819 21.8252 5.16134 20.2338C4.14077 18.6424 3.56881 16.8049 3.50583 14.9154L3.5 14.5654V8.30856C3.50001 7.86655 3.62556 7.43363 3.86206 7.0602C4.09855 6.68677 4.43624 6.38819 4.83583 6.19923L5.01433 6.1234L13.181 3.0609ZM18.0052 10.5672L12.6408 15.9316L10.5782 13.8689C10.3593 13.6501 10.0624 13.5273 9.75292 13.5274C9.44344 13.5275 9.14668 13.6506 8.92792 13.8695C8.70916 14.0884 8.58632 14.3852 8.58643 14.6947C8.58654 15.0042 8.70959 15.301 8.9285 15.5197L11.7332 18.3244C11.8523 18.4436 11.9938 18.5382 12.1496 18.6027C12.3053 18.6673 12.4723 18.7005 12.6408 18.7005C12.8094 18.7005 12.9763 18.6673 13.1321 18.6027C13.2878 18.5382 13.4293 18.4436 13.5485 18.3244L19.6548 12.2169C19.7663 12.1093 19.8551 11.9805 19.9163 11.8382C19.9774 11.6959 20.0096 11.5428 20.011 11.3879C20.0123 11.233 19.9828 11.0793 19.9241 10.936C19.8655 10.7926 19.7788 10.6623 19.6693 10.5528C19.5598 10.4432 19.4295 10.3566 19.2861 10.2979C19.1427 10.2393 18.9891 10.2098 18.8342 10.2111C18.6793 10.2125 18.5262 10.2446 18.3839 10.3058C18.2415 10.3669 18.1128 10.4558 18.0052 10.5672Z" fill="#03045E"/>
</g>
<defs>
<clipPath id="clip0_155_9483">
<rect width="24" height="24" fill="white" transform="translate(0 0.5)"/>
</clipPath>
</defs>
</svg>
