<svg width="30" height="30" viewBox="0 0 30 30" fill="none" xmlns="http://www.w3.org/2000/svg">
<path d="M28.5224 12.6341L24.8219 12.0293C24.6052 11.2868 24.3091 10.573 23.9384 9.89749L26.0986 6.81902C26.2733 6.57046 26.2432 6.23175 26.0284 6.01638L23.5934 3.58278C23.3761 3.36615 23.0342 3.33798 22.785 3.51766L19.7526 5.69707C19.0708 5.32017 18.3507 5.0209 17.6037 4.80365L16.9582 1.1185C16.9056 0.819228 16.6457 0.600098 16.3414 0.600098H12.8976C12.5908 0.600098 12.3291 0.822359 12.2796 1.12538L11.681 4.7905C10.9297 5.0065 10.2084 5.30264 9.52899 5.67453L6.50473 3.51453C6.2549 3.3361 5.9149 3.3649 5.69763 3.5809L3.26382 6.0145C3.04905 6.22925 3.019 6.56733 3.19369 6.81589L5.32195 9.86055C4.94313 10.5461 4.64133 11.2717 4.42155 12.0268L0.770525 12.6347C0.468724 12.6848 0.24707 12.9465 0.24707 13.2521V16.6955C0.24707 16.9992 0.464967 17.259 0.763637 17.3122L4.41467 17.9596C4.63319 18.7128 4.93499 19.4384 5.31506 20.1259L3.16051 23.1392C2.98268 23.3878 3.01086 23.729 3.22688 23.9463L5.66131 26.3824C5.87608 26.5971 6.21482 26.6272 6.4634 26.4525L9.51271 24.3169C10.1971 24.6932 10.9203 24.9918 11.6698 25.2084L12.2809 28.8779C12.3303 29.1791 12.5914 29.4001 12.8976 29.4001H16.3414C16.6451 29.4001 16.9049 29.1822 16.9575 28.8836L17.6118 25.1959C18.3626 24.9749 19.082 24.6744 19.7595 24.2975L22.8307 26.4519C23.0799 26.6278 23.4181 26.5971 23.6335 26.3824L26.0679 23.9463C26.2845 23.729 26.3127 23.3865 26.133 23.1374L23.9428 20.0964C24.3141 19.4203 24.609 18.7053 24.8237 17.9627L28.5293 17.3122C28.8292 17.2596 29.0471 16.9992 29.0471 16.6955V13.2521C29.0477 12.9453 28.8254 12.6836 28.5224 12.6341ZM14.6471 19.3827C12.2264 19.3827 10.2641 17.4205 10.2641 15.0001C10.2641 12.5796 12.2264 10.6175 14.6471 10.6175C17.0677 10.6175 19.0301 12.5796 19.0301 15.0001C19.0301 17.4205 17.0677 19.3827 14.6471 19.3827Z" fill="#03045E"/>
</svg>
