<svg width="42" height="39" viewBox="0 0 42 39" fill="none" xmlns="http://www.w3.org/2000/svg">
<path d="M21.104 38.0453L16.7619 35.168C13.6576 33.0783 10.7473 30.6641 8.07225 27.9597C3.66323 23.4583 0.258789 18.6223 0.258789 11.8762C0.265551 9.09189 1.21102 6.40738 2.91536 4.33331L2.94885 4.29073C3.82719 3.16246 4.91746 2.25279 6.14601 1.62315C7.37456 0.993502 8.71278 0.658554 10.0703 0.640928C14.2895 0.397608 18.4753 2.16168 21.0817 7.33222C23.688 2.18601 27.8738 0.42194 32.0987 0.640928C33.4552 0.659421 34.7923 0.994785 36.0199 1.6244C37.2474 2.25401 38.3368 3.16323 39.2145 4.29073L39.248 4.33331C40.9539 6.40679 41.9013 9.0912 41.9101 11.8762C41.9101 18.6223 38.5224 23.4339 34.0967 27.9597C31.4197 30.6642 28.5075 33.0784 25.4014 35.168L21.104 38.0453Z" fill="#83C1CE"/>
</svg>
