<svg width="32" height="32" viewBox="0 0 32 32" fill="none" xmlns="http://www.w3.org/2000/svg">
<path d="M19.0639 3.809C17.7319 1.399 14.2679 1.399 12.9359 3.809L2.4429 22.808C1.1549 25.14 2.8429 28 5.5069 28H26.4939C29.1579 28 30.8459 25.14 29.5569 22.808L19.0639 3.809ZM17.2499 22C17.2499 22.3315 17.1182 22.6495 16.8838 22.8839C16.6494 23.1183 16.3314 23.25 15.9999 23.25C15.6684 23.25 15.3504 23.1183 15.116 22.8839C14.8816 22.6495 14.7499 22.3315 14.7499 22C14.7499 21.6685 14.8816 21.3505 15.116 21.1161C15.3504 20.8817 15.6684 20.75 15.9999 20.75C16.3314 20.75 16.6494 20.8817 16.8838 21.1161C17.1182 21.3505 17.2499 21.6685 17.2499 22ZM15.9999 9C16.2651 9 16.5195 9.10536 16.707 9.29289C16.8945 9.48043 16.9999 9.73478 16.9999 10V18C16.9999 18.2652 16.8945 18.5196 16.707 18.7071C16.5195 18.8946 16.2651 19 15.9999 19C15.7347 19 15.4803 18.8946 15.2928 18.7071C15.1053 18.5196 14.9999 18.2652 14.9999 18V10C14.9999 9.73478 15.1053 9.48043 15.2928 9.29289C15.4803 9.10536 15.7347 9 15.9999 9Z" fill="#03045E"/>
</svg>
