<svg width="31" height="21" viewBox="0 0 31 21" fill="none" xmlns="http://www.w3.org/2000/svg">
<path d="M13.8333 0.500015H9.9375C8.52604 0.500015 7.26562 1.26341 6.79688 2.4018L0.661458 17.25C0.557292 17.5089 0.5 17.7857 0.5 18.0625C0.5 19.4063 1.77604 20.5 3.34375 20.5H13.8333V17.6429C13.8333 16.8527 14.5781 16.2143 15.5 16.2143C16.4219 16.2143 17.1667 16.8527 17.1667 17.6429V20.5H27.6562C29.2292 20.5 30.5 19.4063 30.5 18.0625C30.5 17.7857 30.4427 17.5089 30.3385 17.25L24.2031 2.4018C23.7292 1.26341 22.474 0.500015 21.0625 0.500015H17.1667V3.35716C17.1667 4.14734 16.4219 4.78573 15.5 4.78573C14.5781 4.78573 13.8333 4.14734 13.8333 3.35716V0.500015ZM17.1667 9.07144V11.9286C17.1667 12.7188 16.4219 13.3572 15.5 13.3572C14.5781 13.3572 13.8333 12.7188 13.8333 11.9286V9.07144C13.8333 8.28127 14.5781 7.64287 15.5 7.64287C16.4219 7.64287 17.1667 8.28127 17.1667 9.07144Z" fill="#03045E"/>
</svg>
